<svg width="115" height="115" viewBox="0 0 115 115" fill="none" xmlns="http://www.w3.org/2000/svg">
<g clip-path="url(#clip0_352_49)">
<path d="M41.9511 67.3048L34.7608 100.859L26.8516 98.7022C26.8516 98.7022 30.2069 58.916 38.5957 55.3209L41.9511 67.3048Z" fill="#344A5E"/>
<path d="M90.6048 52.9244C90.6048 52.9244 96.5967 54.1227 97.3157 54.6022C98.2745 55.0815 101.151 61.7925 99.4728 69.2225C97.795 76.6525 93.9604 88.8759 88.2082 95.5867C82.456 102.297 75.2657 106.612 75.2657 106.612C75.2657 106.612 70.9516 110.686 64.9596 110.207C58.9676 109.728 32.8432 108.529 32.8432 108.529C32.8432 108.529 31.1654 97.504 38.3557 87.4376L50.0998 88.636L65.6786 88.3962L75.2657 71.8586L75.026 62.5113C75.2655 62.5113 86.7699 53.4037 90.6048 52.9244Z" fill="#425A6B"/>
<path d="M30.2065 115H44.8268L52.4963 97.2642C52.4963 97.2642 47.9424 85.52 48.6614 75.9332C49.1407 66.3461 54.6534 49.0895 54.6534 49.0895C54.6534 49.0895 50.8185 50.5275 47.9424 51.7258C45.0663 52.9241 38.8348 55.321 38.8348 55.321C38.8348 55.321 34.5207 60.5939 34.2809 66.8254C34.2809 73.2966 34.2809 87.4373 34.2809 87.4373C31.6446 92.231 30.9256 103.735 30.2065 115Z" fill="#344A5E"/>
<path d="M84.8526 115C84.1336 109.248 85.3319 103.256 87.9685 98.2227C94.4397 85.2802 96.5968 79.7678 96.5968 79.7678C88.6875 81.2058 82.456 84.5612 78.6211 91.5119C76.4641 82.8836 75.026 74.2553 75.5053 70.8999C76.9433 62.9907 85.3319 56.5194 88.927 54.6021C91.8031 53.1641 95.638 53.8831 96.8363 54.3624C95.638 53.8831 92.5221 52.9243 90.6048 51.726C88.208 50.5277 81.9765 47.4119 81.9765 47.4119L79.1004 47.8911C79.1004 47.8911 60.166 66.1065 58.0089 69.9412C55.8518 73.776 47.2235 97.7434 47.2235 97.7434L43.6284 115H84.8526Z" fill="#344A5E"/>
<path d="M96.8359 54.3624C97.0757 54.3624 97.3152 54.6022 97.3152 54.6022C97.3152 54.6019 97.0757 54.3624 96.8359 54.3624Z" fill="#344A5E"/>
<path d="M48.9019 112.124C48.9019 112.124 55.8524 110.686 59.6873 107.57C63.2824 104.454 53.6953 100.859 53.6953 100.859L48.9019 112.603" fill="#FFE1CE"/>
<path d="M50.3401 12.1794L49.3814 18.4109C49.3814 18.4109 48.9021 20.3282 49.3814 21.7663C49.8606 23.2043 49.1416 24.6424 49.1416 26.7995C49.1416 28.9565 51.2987 35.188 51.0589 36.6261C51.0589 38.0641 50.5797 44.2956 55.6128 44.2956L56.3318 55.081L76.4645 45.9734C76.4645 45.9734 74.5472 40.7005 74.5472 38.5434C74.5472 36.1466 76.4645 29.9151 76.4645 29.9151L78.1423 22.0058C78.1423 22.0058 75.7455 9.06336 69.2743 6.42701C63.0428 3.79088 53.4557 3.79088 50.3401 12.1794Z" fill="#FFE1CE"/>
<path d="M52.2569 11.2207C52.976 10.0224 56.5711 10.2619 59.2075 10.0224C61.6043 9.78267 67.8358 10.7415 68.5548 11.4605C69.2738 12.1795 66.6375 13.8573 67.1167 16.0144C67.3565 17.9317 69.9928 19.1302 70.4721 20.8078C71.1911 22.7251 70.4721 27.5188 70.4721 27.5188L71.9102 28.2378C71.9102 28.2378 75.026 24.6427 76.7036 24.8824C78.3814 25.1222 74.7863 32.7917 74.7863 35.9076C74.7863 39.0234 74.7863 38.7837 74.7863 38.7837C74.7863 38.7837 77.4226 32.3124 78.3814 29.6761C79.3402 27.0397 81.7368 20.3288 81.7368 16.0146C81.7368 11.7005 77.9019 5.7085 74.3068 4.03092C70.7116 2.35335 59.447 -1.24201 54.4138 0.435795C49.3806 2.1136 48.1823 8.82435 48.6616 10.9814C49.1409 13.1385 49.3806 18.651 49.3806 18.651C49.3806 18.651 51.5379 12.419 52.2569 11.2207Z" fill="#425A6B"/>
<path d="M73.5879 35.6677C67.8357 43.8168 55.8521 44.5358 55.8521 44.5358L56.5711 53.6434C69.0343 47.4117 73.5879 35.6677 73.5879 35.6677Z" fill="#E7C1AA"/>
<path d="M67.8356 59.1557C63.2817 63.7096 58.9676 68.5031 58.009 70.1809C56.571 72.5777 52.4966 83.3631 49.86 90.5533L46.9839 83.8424L54.4139 49.8084L56.3312 48.3704L61.1247 50.0482H66.3976L67.8356 59.1557Z" fill="#E8EAE8"/>
<path d="M61.3645 53.6435L61.1248 56.2798L55.6123 75.6935L51.7775 85.2806L49.1411 83.6028L51.2982 67.5445C51.2982 67.5445 57.7694 56.5193 57.7694 54.8418C57.7694 53.164 58.0091 52.9244 58.0091 52.9244L61.3645 53.6435Z" fill="#F26F5A"/>
<path d="M56.811 51.7258C56.811 51.7258 56.811 53.8829 57.5301 54.8416C57.5301 54.8416 60.6459 54.6019 60.8854 56.2797C60.8854 56.2797 63.0425 53.4036 64.7203 53.4036C64.7203 53.4036 62.3235 50.7672 60.8854 50.2877C59.4474 49.8082 58.9681 49.8085 58.9681 49.8085L56.811 51.7258Z" fill="#F05640"/>
<path d="M74.787 39.0231C74.787 39.0231 74.787 40.7009 73.8282 41.6594C72.8694 42.618 60.8857 50.048 60.8857 50.048C63.0428 51.486 64.4809 53.6431 64.9601 55.8002L77.9026 44.056C78.1423 44.296 75.9853 39.7421 74.787 39.0231Z" fill="#F3F3F3"/>
<path d="M76.9429 41.8992C76.9429 41.8992 77.4222 42.6182 76.9429 43.3373C76.7032 43.577 75.9842 44.296 75.0256 45.2546C69.2734 51.0068 64.0005 57.2383 59.4468 63.9493C57.2898 67.0651 55.3724 70.1807 54.4137 72.3378C51.7773 78.5693 46.9837 92.7103 46.7441 98.4625C46.7441 98.4625 55.3724 78.5695 59.9263 72.3378C64.4802 66.1061 76.4639 56.04 77.9019 55.321L75.2656 52.6846H79.5797C79.5797 52.6846 81.2575 48.3704 81.7368 47.8912L81.0178 46.6929C81.2571 46.4531 78.381 41.4199 76.9429 41.8992Z" fill="#425A6B"/>
<path d="M50.5785 52.4449L51.5373 53.164L46.7439 56.0401C46.7439 56.0401 43.3885 69.9413 44.8265 78.3298C45.5456 83.1233 46.9836 89.1152 48.1819 93.4294C48.6612 92.2311 49.1407 90.793 49.3802 89.355C49.3802 88.8757 49.8595 88.6359 50.339 88.6359C50.5787 80.4869 51.2978 69.9413 51.777 67.0652C52.7358 62.2718 56.3309 46.6927 56.3309 46.6927C56.3309 46.6927 52.4961 51.0069 50.5785 52.4449Z" fill="#425A6B"/>
<path d="M55.8524 44.5355C55.8524 44.5355 57.7697 49.0894 60.8856 50.048C60.8856 50.048 57.0507 50.767 55.8524 55.3209C55.8524 55.3209 54.8936 47.1721 55.8524 44.5355Z" fill="#F3F3F3"/>
<path d="M22.537 111.165L30.2066 113.322L35.4795 114.761H48.6617L52.4966 104.215L49.8602 103.256L32.1243 97.0246L34.2814 87.4376C34.2814 87.4376 34.2814 73.2968 34.2814 66.8256C34.2814 60.3543 38.8353 55.3212 38.8353 55.3212C35.2402 55.8004 31.6451 63.9495 30.6863 65.8668C29.7275 67.7841 29.2482 69.4619 29.0085 70.6602C28.7687 71.8585 27.8102 73.2966 26.6117 75.2141C25.4134 77.1315 25.1736 78.5695 24.6943 79.5283C23.9753 80.2473 18.2231 88.6359 17.0248 90.5534C16.066 92.4707 14.628 101.099 15.1075 105.893C15.5865 110.686 22.537 111.165 22.537 111.165Z" fill="#425A6B"/>
<path d="M34.5213 97.9833L32.1245 97.0245C32.1245 94.3881 32.3643 91.9913 33.0833 89.8342C33.5626 88.3961 35.0006 87.6771 36.4387 88.1564L40.9926 89.8342L34.5213 97.9833Z" fill="#FFE1CE"/>
<path d="M49.1414 109.008L45.067 108.768C43.6289 108.768 42.4306 108.529 40.9926 108.529C39.5545 108.529 38.3562 108.289 36.9182 108.289L33.323 108.049C33.323 107.809 33.323 107.33 33.323 107.09C33.323 106.611 33.323 106.132 33.323 105.652C33.323 105.173 33.323 104.694 33.323 104.214C33.323 103.735 33.323 103.256 33.323 102.776C33.323 102.297 33.323 101.817 33.5628 101.338V100.619V99.9001C33.5628 99.4208 33.8025 98.9413 33.8025 98.4621C33.8025 98.2223 33.8025 97.9828 34.0423 97.743V97.5033L33.563 97.7428V97.9826C33.563 98.2223 33.563 98.4618 33.3232 98.7016C33.3232 99.1809 33.0835 99.6604 33.0835 100.14V100.859V101.578C33.0835 102.057 33.0835 102.536 32.8438 103.016C32.8438 103.495 32.8438 103.975 32.8438 104.454C32.8438 104.933 32.8438 105.413 32.8438 105.892C32.8438 106.371 32.8438 106.851 32.8438 107.33C32.8438 107.809 32.8437 108.289 33.0835 108.768V109.008H33.3232L37.3977 109.247C38.8357 109.247 40.034 109.487 41.4721 109.487C42.9101 109.487 44.1084 109.727 45.5465 109.727L49.6209 109.967H51.0589L51.2987 109.248L49.1414 109.008Z" fill="#344A5E"/>
<path d="M98.9935 71.8585C97.0762 79.2885 93.4811 89.5944 88.4479 95.3466C82.6957 102.058 75.5054 106.372 75.5054 106.372C75.5054 106.372 71.1913 110.446 65.1993 109.967C59.2074 109.488 33.083 108.289 33.083 108.289C33.083 108.289 31.4052 97.2639 38.5954 87.1976L50.3396 88.3959L65.9184 88.1561L75.5054 71.6185H98.9935V71.8585Z" fill="#425A6B"/>
<path d="M65.6788 88.6358C66.8771 87.6771 68.3151 86.7185 69.7532 85.7597C69.7532 85.7597 70.2324 84.5614 69.0341 84.3217L69.7532 84.5614L74.0673 82.1646C74.0673 82.1646 75.0261 80.9663 74.0673 80.4868C74.0673 80.4868 76.2244 79.7677 75.7451 79.0487C75.2658 78.0899 74.0673 78.3297 74.0673 78.3297C74.0673 78.3297 74.7863 77.6107 74.5466 77.1314C74.3068 76.6521 73.5878 76.8916 73.1085 76.8916C72.6293 77.1314 70.4722 78.3297 70.4722 78.3297L67.3563 81.2058C67.3563 81.2058 66.3976 82.1646 65.9183 82.8836C65.439 83.6026 64.2405 86.239 64.2405 86.7185C64.2405 87.1978 63.7612 88.6358 63.7612 88.6358H65.6788V88.6358Z" fill="#FFE1CE"/>
<path d="M69.9932 84.082L69.7537 84.3218L69.514 84.8011L68.7949 84.082H69.9932Z" fill="#FFE1CE"/>
<path d="M69.0341 84.3217C68.7944 84.5614 68.7944 84.5614 68.5549 84.5614C68.3153 84.5614 68.3151 84.8012 68.0756 84.8012L67.5963 85.0409C67.3566 85.0409 67.3566 85.2807 67.117 85.2807C66.8773 85.5204 66.6378 85.5204 66.1583 85.7599C65.9185 85.7599 65.9185 85.9997 65.679 85.9997C65.679 85.9997 65.4392 85.9997 65.4392 86.2394C65.4392 86.2394 65.4392 86.2394 65.1995 86.4792C64.9597 86.7189 64.7202 86.9585 64.7202 87.1982V88.157C64.96 87.9172 64.96 87.6777 65.1995 87.438C65.439 87.1982 65.6788 86.9587 65.6788 86.7189C65.6788 86.7189 65.6788 86.4792 65.9185 86.4792C65.9185 86.4792 66.1583 86.4792 66.1583 86.2394C66.398 86.2394 66.398 85.9997 66.6375 85.9997C66.8771 85.9997 66.8773 85.7599 67.1168 85.7599C67.3566 85.7599 67.3566 85.5202 67.5961 85.5202C67.8358 85.5202 67.8358 85.2804 68.0754 85.2804L68.5546 85.0407C68.7944 85.0407 68.7944 84.8009 69.0339 84.8009C68.7944 84.3217 69.0341 84.3217 69.0341 84.3217Z" fill="#E7C1AA"/>
<path d="M74.3067 80.4868C74.3067 80.4868 74.0672 80.4868 74.3067 80.4868C74.067 80.4868 74.067 80.4868 74.067 80.4868C74.067 80.4868 73.8272 80.4868 73.5877 80.4868C73.348 80.4868 73.348 80.4868 73.1084 80.4868C72.6292 80.7266 72.3894 80.7266 71.9101 80.9661C71.6704 80.9661 71.4309 81.2058 71.1911 81.2058C70.9514 81.4456 70.7118 81.4456 70.4721 81.6851C69.9928 81.9249 69.5133 82.1644 69.034 82.4042C68.5547 82.6439 68.315 82.8834 67.8357 83.1232C67.596 83.3629 67.1167 83.6025 67.1167 83.8422L66.877 84.082C66.877 84.082 66.8769 84.082 67.1167 83.8422C67.3565 83.6025 67.596 83.3629 67.8357 83.1232C68.0755 82.8834 68.5547 82.6439 69.034 82.4042C69.2738 82.1644 69.5133 82.1644 69.7531 81.9249C69.9928 81.6851 70.2323 81.6851 70.4721 81.4456C70.7118 81.2059 70.9514 81.2059 71.1911 80.9663C71.4309 80.7266 71.6704 80.7266 71.9101 80.7266C72.1499 80.7266 72.3894 80.4868 72.6292 80.4868C72.8689 80.4868 73.1084 80.2471 73.3482 80.2471C73.3482 80.2471 73.3482 80.2471 73.5879 80.2471C73.5879 80.2471 73.5879 80.2471 73.8277 80.2471C73.8277 80.2471 73.8277 80.2471 74.0674 80.2471C74.3072 80.2471 74.3072 80.2471 74.5467 80.2471C74.0672 80.2473 74.0672 80.2473 74.3067 80.4868C74.3067 80.4868 74.0672 80.4868 74.3067 80.4868Z" fill="#E7C1AA"/>
<path d="M74.0672 78.0902C74.0672 78.0902 74.0672 78.0902 73.8274 78.33C73.5877 78.33 73.3481 78.5697 73.1084 78.8092C72.8686 78.8092 72.8686 79.049 72.6291 79.049H72.3894C72.3894 79.049 72.3894 79.049 72.1496 79.049C72.1496 79.049 72.1496 79.049 71.9099 79.049C71.6701 79.049 71.4306 79.049 71.1908 79.2887C70.9511 79.2887 70.7116 79.5285 70.4718 79.5285C70.2321 79.5285 69.9925 79.7682 69.7528 79.7682C69.513 80.008 69.2735 80.008 69.2735 80.008C68.7942 80.2477 68.5545 80.4873 68.3147 80.727C68.075 80.9668 67.8355 80.9668 67.5957 81.2063C67.356 81.2063 67.356 81.446 67.356 81.446C67.356 81.446 67.356 81.446 67.5957 81.2063C67.8355 81.2063 68.075 80.9665 68.3147 80.727C68.5545 80.4873 69.0338 80.2477 69.2735 80.008C69.5133 80.008 69.7528 79.7682 69.7528 79.5287C69.9925 79.289 70.2321 79.289 70.4718 79.289C70.7116 79.289 70.9511 79.0492 71.1908 79.0492C71.4306 79.0492 71.6701 78.8095 71.9099 78.8095C71.9099 78.8095 71.9099 78.8095 72.1496 78.8095C72.1496 78.8095 72.1496 78.8095 72.3894 78.8095H72.6291C72.8689 78.8095 73.1084 78.5697 73.1084 78.5697C73.5877 78.3297 74.0672 78.0902 74.0672 78.0902Z" fill="#E7C1AA"/>
<path d="M76.9439 28.2377C76.2249 30.6345 74.3075 32.3121 72.8695 31.8328C71.4314 31.3536 70.9522 28.9567 71.6712 26.5599C72.3902 24.1631 74.3075 22.4855 75.7456 22.9648C77.1834 23.4443 77.6629 25.8409 76.9439 28.2377Z" fill="#FFE1CE"/>
</g>
<defs>
<clipPath id="clip0_352_49">
<rect width="115" height="115" fill="white"/>
</clipPath>
</defs>
</svg>
