<svg width="142" height="122" viewBox="0 0 142 122" fill="none" xmlns="http://www.w3.org/2000/svg">
<g clip-path="url(#clip0_356_143)">
<path d="M44.6765 105.993C47.4475 105.993 49.6938 104.671 49.6938 103.041C49.6938 101.411 47.4475 100.09 44.6765 100.09C41.9055 100.09 39.6592 101.411 39.6592 103.041C39.6592 104.671 41.9055 105.993 44.6765 105.993Z" fill="#E9E9E9"/>
<path d="M59.7285 58.77L54.4159 57.5894C54.4159 57.5894 51.1695 59.9504 51.1695 65.5582C50.8742 71.166 50.8742 82.086 50.5793 86.2182C50.284 90.3501 47.0376 100.975 47.0376 100.975C47.0376 100.975 42.9057 113.666 47.0376 114.847C51.1695 116.027 60.6142 113.666 60.6142 113.666C60.6142 113.666 69.7637 95.0722 70.0586 93.3013C70.3536 91.826 59.7285 58.77 59.7285 58.77Z" fill="#E9E9E9"/>
<path d="M55.3017 114.847C52.3502 115.142 49.1037 115.437 47.0377 115.142C44.6766 114.552 44.9716 109.83 45.857 106.288C60.319 103.631 55.3017 114.847 55.3017 114.847Z" fill="#E8EAE8"/>
<path d="M94.8508 24.5337L95.146 27.19C95.146 27.19 95.146 31.6171 94.8508 33.0928V42.8324L90.1284 51.6867L79.5033 52.2769L75.0762 47.8497L75.3714 37.5199C75.3714 37.5199 72.4199 33.0928 72.4199 28.6656C72.4199 24.2385 72.4199 23.0578 72.4199 23.0578C72.4199 23.0578 70.3538 10.6619 73.6005 7.7104C76.847 5.34935 92.1945 6.23478 92.1945 6.23478L95.146 10.9571L94.8508 24.5337Z" fill="#FFE1CE"/>
<path d="M94.8508 24.5337L95.146 27.19C95.146 27.19 95.146 31.6171 94.8508 33.0928V42.8324L90.1284 51.6867L79.5033 52.2769L75.0762 47.8497L75.3714 37.5199C75.3714 37.5199 72.4199 33.0928 72.4199 28.6656C72.4199 24.2385 72.4199 23.0578 72.4199 23.0578C72.4199 23.0578 70.3538 10.6619 73.6005 7.7104C76.847 5.34935 92.1945 6.23478 92.1945 6.23478L95.146 10.9571L94.8508 24.5337Z" fill="#FFE1CE"/>
<path d="M95.1461 27.4849L94.8509 25.1239C94.8509 25.1239 94.8509 24.8287 94.5557 24.8287C94.5557 24.5334 94.5557 24.2385 94.5557 24.2385C94.5557 24.2385 94.5557 23.9432 94.2605 23.9432C94.2605 23.648 93.9652 23.648 93.9652 23.3531L93.67 23.0578C93.67 23.0578 93.67 23.0578 93.67 22.7626V22.4676V22.7629H93.9652H94.2605C94.5557 22.7629 94.5557 22.7629 94.8506 22.7629H95.1459V21.8774H94.8506H94.5554H94.2602H93.9649H93.6697C93.6697 21.8774 93.6697 21.8774 93.3745 21.8774C93.3745 21.8774 93.3745 21.8774 93.0792 21.8774H92.784V22.1727C92.784 22.1727 92.784 22.1727 92.784 22.4679V22.7631L92.4888 23.3533L92.784 23.6486C92.784 23.9438 93.0792 23.9438 93.0792 24.2388C93.0792 24.2388 93.0792 24.534 93.3745 24.534C93.3745 24.8292 93.6697 24.8292 93.6697 25.1242L93.9649 25.4194C93.9649 25.7146 94.2602 26.0096 94.5551 26.6001C94.5551 26.8953 94.8504 26.8953 94.8504 27.1903L95.1461 27.4849C95.1461 27.4849 95.1461 27.4849 95.1461 27.7802C94.556 26.8948 94.556 26.8948 94.556 26.8948V27.19V27.4852L95.1461 29.5513C95.1461 28.3704 95.1461 27.4849 95.1461 27.4849Z" fill="#E7C1AA"/>
<path d="M97.5066 44.8986C97.5066 44.8986 103.409 48.4403 105.475 49.0304C107.541 49.6206 115.51 55.2284 115.51 55.2284C115.51 55.2284 108.427 62.3118 108.722 67.3291C109.017 72.3464 113.739 76.1834 113.739 76.1834C113.739 76.1834 113.739 84.4474 113.149 87.3987C112.559 90.3502 111.083 92.7112 110.493 95.3675C109.903 98.0238 108.132 121.93 108.132 121.93L97.8021 129.899L66.8122 132.555L57.6628 125.472C57.6628 125.472 58.5482 118.979 59.1384 116.322C59.7286 113.666 61.4994 104.812 61.7946 103.336C62.0899 101.861 62.6801 93.5966 61.7946 90.6451C60.9092 87.6936 55.5967 77.3638 55.5967 74.7075C55.5967 72.0512 55.8919 60.2455 54.416 58.1797C54.416 58.1797 60.614 53.1623 65.3363 51.0963C69.7635 49.0302 74.4858 45.4885 74.4858 45.4885L82.4546 50.5058H84.2255L89.8333 49.3251L97.5066 44.8986Z" fill="#425A6B"/>
<path d="M83.3403 54.343L83.6355 57.8847C83.6355 57.8847 85.4064 64.3779 85.4064 66.1488C85.4064 67.9196 83.0453 89.1698 83.3403 93.3017C83.6355 97.4336 82.1596 113.371 82.1596 113.371L76.2569 120.75L70.9443 113.076C70.9443 113.076 73.6006 82.6766 75.9616 75.003C78.3227 67.0342 80.684 57.5898 80.684 57.5898L83.3403 54.343Z" fill="#F26F5A"/>
<path d="M79.7989 50.8013C82.7504 49.9159 85.4067 49.9159 87.1775 50.8013L87.7677 53.7528C87.7677 53.7528 84.226 55.5236 83.9308 57.8847C83.0454 57.2945 81.8647 57.2945 80.9793 57.8847C81.2745 57.5895 79.5037 54.343 78.323 53.7528C77.1424 53.1626 77.4376 52.8674 77.4376 52.8674L79.7989 50.8013Z" fill="#F26F5A"/>
<path d="M85.4058 102.746L51.4644 98.6141H43.4956L52.0549 103.041L83.3397 104.517L85.4058 102.746Z" fill="#C1CBD8"/>
<path d="M52.0555 103.041C52.3507 102.746 85.4064 102.746 85.4064 102.746C85.4064 102.746 85.9966 105.698 83.3403 105.698C80.684 105.698 50.5796 104.812 50.5796 104.812L52.0555 103.041Z" fill="#ACB6C2"/>
<path d="M93.965 15.0889C93.6698 15.9743 91.0135 18.0404 91.8989 20.1062C92.7844 22.1723 93.965 21.5819 93.965 23.6479H96.3261C97.2115 21.2869 98.0969 18.0401 98.6871 15.6791C99.5725 11.8422 98.9823 8.59571 97.5065 6.52963C96.0308 4.46355 92.4891 0.331656 86.5861 0.036422C80.6834 -0.258812 73.6 1.21708 72.4193 4.46355C71.2387 7.71001 70.9437 13.908 71.5339 15.9741C72.1241 18.0401 71.8291 23.3527 73.0095 24.2381C73.0095 24.2381 73.0095 18.0401 73.3047 16.2693C73.3047 14.4985 72.4193 10.3666 75.6658 10.6615C78.9123 10.6615 83.3394 11.5469 88.9472 10.0713C94.5555 8.59599 94.2603 14.2035 93.965 15.0889Z" fill="#425A6B"/>
<path d="M94.8504 33.0928C94.8504 33.388 93.965 38.1101 90.1281 41.947C85.9962 45.784 81.5691 45.784 84.5203 46.9643C87.4718 48.145 86.8813 48.44 84.8155 49.0304C83.3399 49.3257 78.0274 50.2111 75.3711 48.7352L75.6663 38.4053C75.6663 38.4053 76.5517 40.4714 78.0274 41.6518C79.208 42.8325 82.1592 44.3081 83.9301 44.0128C85.7009 43.7176 88.062 41.9467 90.4233 40.1759C91.8992 38.1101 94.8504 33.0928 94.8504 33.0928Z" fill="#E7C1AA"/>
<path d="M108.427 35.4539C107.247 33.683 107.247 33.3878 107.247 31.9122C107.247 31.0267 107.542 27.1898 107.837 25.419C107.837 24.8288 107.837 24.5335 107.247 24.2383C106.656 23.6481 105.771 22.7627 105.476 22.1722C104.886 21.2868 102.524 17.7451 102.524 17.7451C102.524 17.7451 101.344 17.1549 100.753 17.4499C100.163 18.0401 96.6215 18.0401 96.6215 18.0401C96.6215 18.0401 95.4409 18.3353 95.1459 19.2207H92.4896C92.4896 19.2207 92.1944 20.4014 93.0798 20.9916C93.0798 20.9916 93.3751 21.877 94.8507 21.877C94.5554 21.877 93.3751 21.877 92.7846 23.0577L93.9652 24.5333C93.9652 24.5333 94.2605 25.7139 94.8507 26.3041C95.4409 26.8943 95.4409 28.6652 95.4409 28.9604C95.4409 29.5506 96.0311 34.8631 96.6215 35.7485C97.2117 36.634 98.9826 38.1096 99.868 38.995C100.753 39.8804 105.771 46.0784 105.771 46.0784L111.969 40.7659C111.674 40.4715 109.313 37.2247 108.427 35.4539ZM100.754 26.8949H99.2781C99.2781 26.8949 98.3927 27.1901 98.0974 26.0094C98.0974 24.8288 96.9168 23.3532 96.9168 23.3532C97.507 23.3532 97.507 23.0579 98.0974 22.763L100.164 23.6484L101.049 26.3047L100.754 26.8949Z" fill="#FFE1CE"/>
<path d="M103.705 21.5822C103.409 21.287 103.114 20.992 103.114 20.6968C102.819 20.1066 102.524 19.8113 102.229 19.2212L101.934 18.9259C101.934 18.9259 101.934 18.9259 101.934 18.6307C101.639 18.6307 101.344 18.3354 101.344 18.3354C101.048 18.3354 100.458 18.3354 100.163 18.3354L99.2775 18.6307C98.9823 18.6307 98.6873 18.9259 98.3921 18.9259C98.0969 18.9259 97.8019 19.2212 97.8019 19.2212C97.8019 19.2212 97.8019 19.2212 97.5067 19.2212C97.5067 19.2212 97.5067 19.2212 97.2115 19.2212C96.6213 19.5164 96.0308 20.1066 95.7358 20.6968L95.4406 20.992C95.1454 21.2872 95.1454 21.5822 94.8504 21.8774C94.5552 22.1727 94.5552 22.4676 94.5552 23.0581C94.5552 23.9435 94.5552 23.9435 94.5552 23.9435C94.5552 23.9435 94.5552 24.2387 94.8504 24.2387C94.8504 24.2387 94.8504 24.2387 95.1456 24.2387C95.4409 24.2387 95.7358 24.2387 95.7358 24.2387C96.0311 24.2387 96.326 23.9435 96.326 23.9435C96.6213 23.9435 96.6213 23.6483 96.9162 23.6483V23.353C96.0308 24.2385 95.1454 24.2385 94.8501 23.9432C94.8501 23.9432 94.5549 23.353 94.8501 23.0578C94.8501 22.7626 95.1454 22.4676 95.7356 21.8771C95.7356 21.8771 95.7356 21.8771 95.7356 21.5819C95.7356 21.2867 96.0308 21.2867 96.0308 20.9917C96.0308 20.6968 96.326 20.6965 96.326 20.6965C97.2115 19.8111 99.2775 18.6304 100.753 18.9256C101.639 19.2209 101.934 19.8111 102.524 20.4013C103.114 20.992 103.41 21.287 103.705 21.5822C104 21.8774 104 22.1724 104.295 22.1724C104 21.8774 103.705 21.5822 103.705 21.5822Z" fill="#E7C1AA"/>
<path d="M102.819 25.4191C101.934 25.4191 101.343 26.0093 101.048 26.5998C100.753 27.1902 100.458 28.0754 100.458 28.9608C100.163 30.7316 99.8678 32.5025 99.5726 34.2733C99.5726 34.5686 99.5726 35.1588 99.5726 35.454C99.2773 33.9784 99.2773 32.5025 99.8678 31.0269C99.2776 31.6171 98.9824 32.2075 98.6871 33.093C98.6871 32.5028 98.6871 31.9123 98.9824 31.6173C99.2776 31.3221 99.5726 30.7319 99.5726 30.4367C99.5726 29.8465 98.9824 29.256 98.9824 28.9611C98.9824 28.0756 99.5726 27.4855 100.458 27.4855C99.8678 27.4855 99.2773 27.4855 98.3919 27.4855H98.0967V27.1902C98.0967 26.0096 97.8014 25.1241 96.916 23.9438C97.5062 24.534 97.8014 25.4194 98.0967 26.3048C98.0967 26.6 98.0967 26.895 98.3919 26.895C98.6871 26.895 99.2773 26.895 99.5726 26.895C99.8678 26.895 99.8678 26.895 100.163 26.895C100.458 26.895 100.458 26.895 100.458 26.895C100.458 26.895 100.458 26.895 100.458 26.5998C100.458 26.0096 99.8678 25.4191 99.5726 24.8289C99.2773 24.5337 98.6871 23.9435 98.3919 23.6483C97.8017 23.0581 97.2113 22.1726 97.5065 21.2872C97.8017 21.8774 98.3919 22.1726 98.9821 21.8774H99.2773C99.5726 21.8774 99.5726 21.5822 99.5726 21.2872C99.5726 20.9923 99.5726 20.992 99.8678 20.697C99.8678 20.9923 99.8678 20.9923 99.8678 21.2872C99.8678 21.5822 99.8678 21.5824 99.8678 21.8774C99.8678 22.1724 100.163 22.1726 100.163 22.1726C100.458 22.4679 100.753 22.4679 101.048 22.7628C101.344 22.7628 101.934 23.0581 102.229 23.0581C101.934 23.0581 101.639 23.0581 101.344 23.0581C101.048 23.0581 100.754 23.3533 100.754 23.6483C100.754 23.9432 100.754 23.9435 101.049 24.2384C101.344 24.5337 101.344 25.1239 101.344 25.4191C101.344 25.1239 101.639 25.1239 101.639 25.1239C101.934 25.1239 101.934 25.1239 102.229 25.1239C102.229 25.4191 102.524 25.4191 102.819 25.4191Z" fill="#E7C1AA"/>
<path d="M93.6702 20.6968C93.6702 20.6968 91.3091 20.992 90.7187 20.6968C90.1285 20.4015 86.8817 20.4015 85.7014 20.6968C84.5207 20.6968 83.6353 20.992 83.3403 21.287C83.0454 21.5819 81.2742 21.5822 80.684 21.287C79.7986 20.9917 79.2084 20.4015 77.4376 20.1063C75.6667 19.8111 72.7152 20.1063 72.125 20.1063C71.5348 20.1063 70.6494 20.1063 70.6494 20.1063V21.287C70.6494 21.287 71.2396 21.5822 71.2396 21.8772C71.2396 22.1721 71.5348 25.1236 72.4203 26.3043C73.3057 27.4849 74.7813 27.4849 75.3718 27.4849C76.2572 27.4849 78.028 27.4849 79.2087 26.5995C80.3894 25.4189 80.6843 23.3531 80.6843 23.0578C80.6843 22.7626 80.6843 22.7626 81.2745 22.7626C81.2745 22.7626 81.8647 22.7626 82.1599 23.0578C82.4552 23.648 82.7501 26.0093 84.226 26.8948C85.7016 27.7802 88.0629 28.0754 89.5386 27.7802C91.0142 27.4849 91.8996 25.4191 91.8996 24.8287C91.8996 24.2382 92.1948 22.4676 92.785 22.4676C93.0803 22.1724 93.9657 22.1724 93.9657 22.1724L93.6702 20.6968ZM80.0936 23.6483C79.7983 24.8289 78.9129 26.3046 77.7325 26.5998C76.5519 26.895 74.781 26.895 73.6006 26.3046C72.7152 25.7144 72.125 24.2385 72.125 22.7629C72.125 21.5822 72.4203 20.992 73.6006 20.6968C74.781 20.4015 77.7325 20.6968 78.323 20.6968C78.6182 20.6968 78.9132 20.992 78.9132 20.992C79.5034 21.2872 79.7986 21.5822 79.7986 22.1727C80.0936 22.7629 80.0936 23.3531 80.0936 23.6483ZM91.3089 25.4191C91.0136 26.3046 89.8332 27.19 88.3573 27.19C86.8815 27.19 85.4058 26.8948 84.5204 25.7144C83.9302 25.1242 83.3398 23.6483 83.3398 22.7629C83.0445 22.1727 83.3398 21.5822 83.9299 20.992C84.8154 20.992 88.3571 20.992 89.5377 20.992C90.7184 20.992 91.6038 21.8774 91.8988 22.4676C91.8993 23.0578 91.6041 24.8287 91.3089 25.4191Z" fill="#344A5E"/>
<path d="M95.1459 18.9259H92.4896C92.4896 18.9259 92.1944 20.1066 93.0798 20.6968C93.0798 20.6968 93.3751 21.5822 94.8507 21.8774L95.1459 18.9259Z" fill="#FFE1CE"/>
<path d="M98.0974 18.0406C98.0974 18.0406 96.6217 18.6308 96.3265 18.926C96.0313 19.5162 95.7363 20.1066 95.4411 20.6968C95.1459 20.9921 94.8509 21.5823 94.5557 21.8775C94.8509 21.8775 94.8509 21.5823 95.1459 21.5823C95.4411 21.287 95.7361 20.6968 96.0313 20.4016C96.3265 20.1064 96.6215 19.5162 96.9167 19.2209C97.2119 18.3355 98.3923 18.0403 99.2778 18.0403C98.9828 18.0406 98.3923 18.0406 98.0974 18.0406Z" fill="#E7C1AA"/>
<path d="M94.5555 19.5161C94.2603 19.5161 94.2603 19.8114 93.9653 19.8114C93.6701 20.1066 92.7847 20.992 92.7847 20.992C92.7847 20.992 93.0799 20.992 93.0799 20.6968C93.3751 20.6968 93.6701 20.4016 93.9653 20.1066C94.5555 19.8114 94.5555 19.8114 94.8508 19.5164C94.8508 19.2212 95.146 19.2212 95.146 19.2212C94.8505 19.2212 94.5555 19.5161 94.5555 19.5161Z" fill="#E7C1AA"/>
<path d="M97.5069 45.1935C96.6214 44.8982 96.0312 40.4711 94.8506 40.1761L97.5069 45.1935Z" fill="#425A6B"/>
<path d="M104 45.1935L109.017 54.0477L111.674 59.3603C111.674 59.3603 108.427 62.0166 108.427 67.0339C108.427 72.0512 113.74 75.2979 113.74 75.2979C113.74 75.2979 116.691 76.1834 117.577 77.0688C118.462 77.9542 124.955 82.0861 126.726 81.4959C128.497 81.2007 130.563 80.3153 132.924 79.1349C135.285 77.9545 138.827 73.2321 136.466 68.805C134.105 64.3779 131.743 60.246 128.497 57.5897C125.545 55.2287 118.757 47.5548 118.757 47.5548L111.674 38.7006C111.674 39.2908 104.885 42.5372 104 45.1935Z" fill="#E9E9E9"/>
<path d="M126.431 76.7737C126.431 76.7737 124.66 76.7737 121.413 75.8883C118.167 75.0029 117.281 71.166 116.396 69.6904C115.511 68.2147 111.674 59.9507 111.674 59.9507C111.674 59.9507 111.674 59.9507 111.378 60.2459L113.444 64.3778L117.576 72.9368L119.347 75.8883C119.347 75.8883 121.118 79.43 121.708 79.7253C122.298 80.3154 123.184 80.6107 122.298 80.0205C121.413 79.4303 119.642 75.5934 119.642 75.5934C119.642 75.5934 120.528 76.4788 120.823 76.774C121.118 77.0693 122.298 78.2496 123.479 79.1351C124.66 79.7253 125.545 79.1351 124.365 79.1351C123.184 78.8398 120.823 76.4788 120.823 76.4788C120.823 76.4788 122.889 77.3642 124.955 77.3642C127.316 77.0687 126.431 76.7737 126.431 76.7737Z" fill="#D0D0D0"/>
<path d="M4.83266 66.4437L18.114 99.4996C18.4093 100.09 18.7042 100.385 19.2947 100.385L50.8747 104.812C51.7602 104.812 52.6456 103.927 52.3504 103.041L37.8883 66.4437C37.5931 65.8535 37.2981 65.5583 36.7077 65.5583L6.01304 64.6729C5.1279 64.6729 4.53743 65.5583 4.83266 66.4437Z" fill="#CED6E0"/>
<path d="M55.302 110.42L54.1214 112.191C54.1214 112.191 51.4651 112.486 49.1041 112.191C46.743 112.191 45.2671 111.01 44.6769 110.42C44.0867 109.83 43.7915 109.534 42.3159 109.239C40.8403 108.944 39.0694 108.944 38.184 108.059C38.184 108.059 35.823 107.763 35.2325 105.993C35.2325 105.993 34.3471 105.402 32.8715 105.107C31.3958 104.812 29.92 104.812 29.92 103.336L28.4443 100.975C28.4443 100.975 29.625 98.6142 31.3958 100.09C33.1667 101.565 32.8715 101.861 32.8715 101.861L33.7569 102.156C33.7569 102.156 33.1667 99.2044 33.1667 96.2531C32.8715 93.5969 32.2813 93.3016 33.4619 92.7114C34.6426 92.1213 35.2328 93.0067 35.2328 93.0067C35.2328 92.4165 37.5938 90.6456 38.4792 93.5969C39.0694 95.3677 39.0694 97.1386 39.0694 97.1386C39.0694 97.1386 39.0694 95.6629 40.8403 95.9579C42.9064 96.2531 42.6111 100.385 42.9064 101.27C43.2016 101.861 43.2016 103.041 43.7918 103.631C44.382 103.927 44.9724 104.222 45.5626 104.222C46.1528 104.222 46.7433 104.222 46.7433 104.222C46.7433 104.222 46.7433 103.926 47.0385 103.926L50.8755 104.517H51.1707C51.4659 104.517 51.4659 104.517 51.7609 104.517C52.0561 104.517 52.3511 104.517 52.3511 104.517C52.6463 105.107 52.3511 106.287 52.3511 106.287C52.3511 106.287 53.8267 105.992 54.4172 107.763C55.0068 109.829 55.302 110.42 55.302 110.42Z" fill="#FFE1CE"/>
<path d="M45.8573 106.878C45.2671 106.288 44.3817 105.107 44.0864 104.517C44.3817 104.812 44.9718 104.812 45.2671 104.812C45.8573 104.812 46.4477 104.812 46.4477 104.812C46.4477 104.812 46.4477 104.812 46.4477 104.517C46.4477 105.107 46.4477 105.698 46.4477 106.288C46.4477 107.469 46.4477 106.878 46.743 107.469C47.0377 108.059 46.7427 107.468 45.8573 106.878Z" fill="#E7C1AA"/>
<path d="M38.7744 97.7289C38.7744 97.7289 39.0696 98.3191 39.3646 99.2045C39.3646 99.7947 39.6598 100.09 39.6598 100.68C39.6598 101.27 39.9551 101.861 39.9551 102.451C39.9551 103.041 39.9551 103.632 40.2503 104.222C40.2503 104.517 40.2503 104.517 40.5455 104.812L40.8408 105.107L41.136 105.402C41.7262 106.288 42.0214 106.583 42.0214 106.583C42.0214 106.583 41.4312 106.288 40.5458 105.698C40.5458 105.698 40.2506 105.698 40.2506 105.402C40.2506 105.402 39.9553 105.402 39.9553 105.107C39.6601 104.812 39.6601 104.517 39.3652 104.222C39.3652 103.632 39.0699 103.041 39.0699 102.451C39.0699 101.861 39.0699 101.27 38.7747 100.68C38.7747 100.09 38.7747 99.4995 38.7747 98.9093C38.7744 98.3191 38.7744 97.7289 38.7744 97.7289Z" fill="#E7C1AA"/>
<path d="M34.9371 93.5969C34.9371 93.5969 35.2324 94.1871 35.5273 95.3678C35.5273 95.663 35.5273 95.958 35.8226 96.2532C35.8226 96.5484 35.8226 96.8434 36.1178 97.1386V97.4339V97.7291C36.1178 98.0243 36.1178 98.0243 36.1178 98.3193C36.1178 98.6145 36.1178 98.9095 36.1178 99.4999C36.1178 100.09 36.1178 100.976 36.1178 101.566V101.861C36.1178 101.861 36.1178 101.861 36.1178 102.156V102.452C36.1178 102.747 36.413 103.042 36.413 103.337C36.7083 104.223 37.0032 105.108 37.0032 105.108C37.0032 105.108 36.708 104.518 36.1178 103.632C36.1178 103.337 35.8226 103.042 35.8226 102.747C35.8226 102.747 35.8226 102.452 35.5273 102.452V102.156V101.861C35.5273 101.271 35.5273 100.385 35.2321 99.7946C35.2321 99.4994 35.2321 99.2044 35.2321 98.9092C35.2321 98.614 35.2321 98.614 35.2321 98.319C35.2321 98.319 35.2321 98.319 35.2321 98.0238V97.7288C35.2321 97.4336 35.2321 97.1386 35.2321 96.8434C35.2321 96.5482 35.2321 96.2532 35.2321 95.958C34.6419 94.4823 34.9371 93.5969 34.9371 93.5969Z" fill="#E7C1AA"/>
<path d="M35.2324 93.8918C35.2324 93.8918 36.1178 93.5966 37.0033 93.8918C37.0033 93.8918 37.2985 95.6627 36.1178 95.9579C35.2324 95.9579 35.2324 93.8918 35.2324 93.8918Z" fill="white"/>
<path d="M32.8711 94.1871C32.8711 94.1871 33.7565 93.5969 34.6419 94.1871C34.6419 94.1871 34.6419 95.6627 34.0518 95.958C33.1663 96.2532 32.8711 94.1871 32.8711 94.1871Z" fill="white"/>
<path d="M39.3638 97.7288C39.3638 97.7288 39.954 97.4336 41.1346 97.4336C41.1346 97.4336 41.4298 99.2045 40.5444 99.4997C39.954 99.7949 39.3638 99.2045 39.3638 97.7288Z" fill="white"/>
<path d="M29.6245 103.631L28.1489 101.27C28.4439 101.27 31.3954 102.451 29.6245 103.631Z" fill="white"/>
<path d="M58.2531 123.111C58.2531 123.111 78.3226 136.687 108.427 121.045L109.017 126.357C104 128.718 80.0934 141.705 57.6626 127.833L58.2531 123.111Z" fill="#344A5E"/>
<path d="M94.8502 40.4714C94.8502 40.4714 93.9648 44.3084 91.8987 45.4887C89.8326 46.9644 84.2251 50.2111 84.2251 50.2111C84.2251 50.2111 87.1766 55.2284 87.1766 57.5897C87.1766 57.5897 96.9163 48.7355 97.5065 45.489C97.5065 45.1935 96.3261 40.4714 94.8502 40.4714Z" fill="#E9E9E9"/>
<path d="M82.7495 50.2111C82.7495 50.2111 80.3884 50.2111 79.2078 53.4576C78.0271 56.7041 78.3223 57.2945 78.3223 57.2945C78.3223 57.2945 74.4854 51.6867 74.1905 49.0305C73.8952 46.3742 75.0759 42.2423 75.0759 42.2423C75.0759 42.2423 75.0759 44.6033 76.2565 45.784C77.4369 47.2596 82.7495 50.2111 82.7495 50.2111Z" fill="#E9E9E9"/>
</g>
<defs>
<clipPath id="clip0_356_143">
<rect width="142" height="142" fill="white"/>
</clipPath>
</defs>
</svg>
