<svg width="185" height="126" viewBox="0 0 185 126" fill="none" xmlns="http://www.w3.org/2000/svg">
<g clip-path="url(#clip0_356_459)">
<path d="M43.9718 30.6528L37.1235 31.0558L37.9291 43.5438L44.7774 54.018L52.4316 52.8095L43.9718 30.6528Z" fill="#344A5E"/>
<path d="M79.825 100.345L80.228 103.568C80.228 103.568 79.0195 116.459 77.8109 121.293C76.6024 126.127 72.9768 142.241 72.9768 143.852C72.9768 145.463 67.7396 172.051 67.7396 176.886C67.7396 176.886 64.9196 179.303 62.0999 179.303C59.2799 179.303 54.4457 176.886 54.4457 176.886C54.4457 176.886 56.4598 155.535 57.6683 150.701C58.8769 145.867 60.4884 137.81 60.4884 134.587C60.0854 131.364 60.8914 122.098 60.8914 122.098C60.8914 122.098 57.2657 144.255 57.2657 147.075L42.7633 148.686C42.7633 148.686 43.5688 129.753 43.5688 126.53C43.5688 123.307 40.3462 103.567 40.3462 97.5246C40.7492 91.0789 45.1804 85.4392 45.1804 85.4392L54.8487 83.0221L76.1994 82.2166L79.825 100.345Z" fill="#425A6B"/>
<path d="M56.4605 89.0655C56.4605 89.0655 62.9061 89.0655 66.9343 88.26C70.9629 87.4544 77.8112 90.2741 77.8112 90.2741L72.5741 35.8898L65.3228 31.4586L62.1002 33.0701L49.6118 34.6816L56.4605 89.0655Z" fill="#D1D1D1"/>
<path d="M64.1143 37.904C64.1143 37.904 64.9198 39.9181 65.3228 41.1266C66.1284 41.9322 69.3514 56.8376 69.754 58.8517C70.5595 60.8658 73.7826 80.6054 73.7826 80.6054L70.5599 90.6767L64.1143 82.6199C64.1143 82.6199 60.8916 53.212 60.8916 49.5864C60.8916 45.5578 61.6972 38.7095 61.6972 38.7095V37.0984C61.6972 36.2924 63.7113 36.6954 64.1143 37.904Z" fill="#F26F5A"/>
<path d="M63.3081 76.5772C63.3081 76.5772 56.4599 97.5254 54.0428 99.9425C51.6257 102.763 35.5117 99.9425 35.5117 99.9425C35.5117 99.9425 39.9429 76.9802 39.9429 73.7575C39.9429 70.9375 45.18 47.9752 45.18 47.9752C45.18 47.9752 43.9715 37.9039 43.1659 34.6813C41.9574 31.0557 37.1232 31.0557 37.1232 31.0557L50.0142 27.4301L54.4454 35.4869L63.3081 65.7004V76.5772Z" fill="#344A5E"/>
<path d="M52.4312 25.013C52.4312 25.013 53.2367 23.8044 54.0427 23.8044C54.8486 23.8044 54.8482 23.8044 54.8482 23.8044L54.0427 26.2215L52.4312 25.013Z" fill="#E8EAE8"/>
<path d="M74.9912 39.1124L76.6027 35.8898C76.6027 35.8898 79.0198 37.5013 79.0198 41.5295C79.0198 45.5577 80.2283 50.3923 81.0339 52.8093C81.8395 55.2264 85.0625 68.1174 85.0625 68.1174C85.0625 68.1174 81.0339 79.3972 80.2283 80.6058C79.0198 81.8143 77.8113 78.9942 77.8113 78.9942L76.1997 49.1837L74.9912 39.1124Z" fill="#425A6B"/>
<path d="M64.9199 30.2499C64.9199 30.2499 74.9912 33.0699 76.6023 35.8896C76.6023 35.8896 76.1994 45.1549 76.6023 47.975C76.6023 47.975 77.4079 82.2171 79.0194 90.2739C81.0335 97.9281 79.825 103.165 79.825 103.165C79.825 103.165 74.1853 77.3825 73.7823 69.7287C73.3793 62.0745 73.3793 53.6147 73.3793 53.6147C73.3793 53.6147 68.1426 33.4729 64.9199 30.2499Z" fill="#344A5E"/>
<path d="M62.9058 30.2499L64.1143 29.8473L64.5169 31.4584L62.5028 33.4729L61.6973 31.0558L62.9058 30.2499Z" fill="#FFE1CE"/>
<path d="M72.1712 4.06494L73.7827 7.69056C73.7827 7.69056 74.9913 12.1217 74.9913 12.9277C74.9913 12.9277 74.1857 14.1362 74.1857 14.9418C74.1857 16.1503 75.3942 18.5674 75.3942 18.5674C75.3942 18.5674 75.3942 19.776 74.1857 19.776C74.1857 19.776 74.1857 20.9845 74.1857 21.7901C74.1857 21.7901 74.1857 22.5956 73.3801 22.5956C73.3801 22.5956 74.1857 22.9986 73.3801 23.8042C73.3801 23.8042 71.7686 24.2071 71.7686 25.0127C71.7686 26.2212 70.5601 27.8328 66.9345 26.6242C66.9345 26.6242 64.9204 27.8328 63.7118 30.6528C62.1003 33.8755 62.1003 34.2784 62.1003 34.2784L52.835 26.6242C52.835 26.6242 54.8491 22.9986 54.0435 20.9845L56.4606 8.09353C56.4602 8.09353 72.1712 4.06494 72.1712 4.06494Z" fill="#F5CFB7"/>
<path d="M62.5029 33.4728L61.6974 33.0698L59.2803 34.2784C59.2803 34.2784 59.6832 37.0984 61.6974 38.307C61.6974 38.307 63.7115 37.5014 64.1144 38.307C64.1144 38.307 64.92 35.4869 64.92 34.2784C64.517 33.0698 62.5029 33.4728 62.5029 33.4728Z" fill="#F05640"/>
<path d="M115.678 124.919L117.29 127.336C117.29 127.336 117.693 135.393 117.29 137.004C116.887 138.213 115.276 157.952 114.47 164.398C113.664 170.843 114.47 175.274 114.873 177.289C115.276 179.303 116.484 180.914 116.484 180.914C116.484 180.914 116.484 187.762 115.679 188.971C114.873 190.18 107.622 188.971 107.622 188.971C107.622 188.971 108.428 184.942 108.025 183.331C108.025 181.317 107.622 175.677 107.622 174.066C107.219 172.454 104.399 151.909 105.205 143.852C106.011 135.796 106.414 129.35 106.011 126.127C105.205 122.502 115.678 124.919 115.678 124.919Z" fill="#FFE1CE"/>
<path d="M130.181 15.7472C130.584 15.3442 131.39 14.9416 131.793 15.3442C132.196 15.7472 133.001 16.1498 133.404 16.5528C133.807 19.3728 132.196 22.9984 130.584 25.8181C128.973 28.6378 127.764 31.4578 127.764 34.6809C128.167 39.515 133.404 43.1406 133.807 48.3778C135.015 45.9607 136.224 43.1406 137.432 40.7236C138.238 37.9035 139.044 35.0838 138.641 32.2638C138.238 28.2352 136.627 24.6096 136.627 20.5814C136.627 18.9698 137.03 17.3587 136.627 15.7472C136.627 14.1357 135.418 12.5246 134.21 11.7186C133.001 10.913 130.584 11.7186 129.779 13.3301" fill="#F26F5A"/>
<path d="M125.347 27.8327C125.347 27.8327 124.138 30.6528 124.944 32.6669C125.749 34.681 125.749 35.4869 125.749 35.4869V42.7382L120.915 49.9894H110.038C110.038 49.9894 110.441 41.5296 111.247 39.1126C112.456 36.6955 113.664 35.8899 113.664 35.8899L114.47 33.0699C114.47 33.0699 109.233 33.8754 110.038 30.2498C110.038 30.2498 109.635 28.2357 109.233 26.6242C108.83 25.0127 108.427 23.4015 110.038 21.3871C110.038 21.3871 110.038 19.3729 110.441 18.567C111.247 17.7614 112.456 12.5243 115.679 12.1213C118.901 11.7184 123.735 13.3299 123.735 13.3299C123.735 13.3299 130.584 18.9703 125.347 27.8327Z" fill="#FFE1CE"/>
<path d="M112.859 39.5155C114.47 43.5441 118.901 43.9467 123.332 39.1125L128.972 41.9326L120.109 74.9661L137.029 95.5113C137.029 95.5113 136.626 105.985 136.223 110.417C135.82 114.848 135.418 130.962 135.418 130.962C135.418 130.962 124.944 129.753 121.721 129.753C118.498 129.753 106.413 126.933 103.996 128.545C103.996 128.545 102.787 113.237 101.982 110.82C101.176 108.403 100.773 98.3314 101.579 94.7058C102.384 91.0801 109.233 70.9379 108.83 62.4782C108.427 53.2121 109.636 41.5296 112.859 39.5155Z" fill="#E8EAE8"/>
<path d="M123.333 29.0413C120.11 31.8613 114.47 33.0699 114.47 33.0699L113.665 35.8899C118.096 35.084 122.527 31.8613 123.333 29.0413Z" fill="#E7C1AA"/>
<path d="M112.858 14.5388C112.858 14.5388 115.275 13.3302 116.081 13.7332C118.498 13.7332 120.915 14.5388 121.318 15.7473C121.721 16.1503 119.707 18.5674 120.11 19.3729C120.513 20.5815 122.527 20.9845 123.332 20.9845C124.138 20.9845 122.527 23.8045 122.527 23.8045L123.332 24.2075C123.332 24.2075 125.346 22.596 126.555 23.4019C127.763 24.2075 124.943 27.0275 124.943 27.0275C124.943 27.0275 124.138 29.0416 124.54 30.6532C124.54 30.6532 125.346 29.0416 126.152 28.639C126.958 28.2361 131.792 26.222 131.792 20.1793C131.792 14.1366 128.166 11.7195 125.346 10.5109C122.124 8.89905 116.081 8.89905 112.858 14.5388Z" fill="#F26F5A"/>
<path d="M103.593 74.9657C105.596 74.9657 107.219 69.7353 107.219 63.2833C107.219 56.8312 105.596 51.6008 103.593 51.6008C101.591 51.6008 99.9678 56.8312 99.9678 63.2833C99.9678 69.7353 101.591 74.9657 103.593 74.9657Z" fill="#344A5E"/>
<path d="M104.802 41.5295H100.773C100.773 41.5295 98.7589 43.1411 98.356 46.7667C97.5504 50.7953 95.9389 67.7148 95.5359 69.7289C95.1329 71.743 93.9244 74.9661 96.3415 76.5772C98.7586 78.1887 106.01 80.6058 106.01 80.6058C106.01 80.6058 103.593 76.1746 104.801 74.1601C106.01 71.743 108.83 71.3401 108.83 71.3401L103.996 69.326V55.2264L106.413 47.9752L104.802 41.5295Z" fill="#425A6B"/>
<path d="M110.844 65.2974C110.844 65.2974 112.053 73.7572 111.65 76.9798C111.247 80.2025 109.636 95.5109 106.01 96.3165C102.385 97.122 98.356 96.3165 98.356 96.3165L102.787 79.7999C102.787 79.7999 103.593 70.1316 103.593 68.5201C103.593 66.9085 103.19 56.0317 103.19 56.0317C103.19 56.0317 105.204 41.5292 100.37 41.9322L111.65 37.501C110.844 37.0984 109.233 58.8521 110.844 65.2974Z" fill="#344A5E"/>
<path d="M139.043 38.7096C139.043 38.7096 133.404 44.7523 134.209 52.4065C134.209 52.4065 134.612 77.7858 135.821 83.4255C137.029 88.6627 137.835 95.5109 137.835 95.5109C137.835 95.5109 132.598 94.7054 128.569 95.108C124.138 95.108 117.29 96.3165 117.29 90.6768C117.29 85.037 116.081 68.1175 116.081 68.1175L123.735 46.3638L127.361 34.6814C126.555 34.2784 137.432 37.501 139.043 38.7096Z" fill="#344A5E"/>
<path d="M127.346 26.1733C128.221 24.8843 128.183 23.3332 127.262 22.7089C126.342 22.0845 124.887 22.6233 124.013 23.9122C123.138 25.2012 123.176 26.7522 124.097 27.3766C125.017 28.001 126.472 27.4622 127.346 26.1733Z" fill="#FFE1CE"/>
<path d="M126.555 25.8186C125.347 27.0272 123.735 27.8327 122.93 27.0272C122.124 26.6242 122.124 25.0131 123.333 23.8045C124.541 22.596 126.153 21.7904 126.958 22.596C127.764 22.9986 127.764 24.6101 126.555 25.8186Z" fill="#FFE1CE"/>
<path d="M124.541 32.2642C124.541 32.2642 124.541 34.2783 124.138 36.2928C123.735 38.3069 120.109 46.7666 119.707 48.7811C118.901 50.7952 115.678 66.1037 115.678 67.7148C115.678 67.7148 118.498 62.4777 119.707 60.0606C120.915 57.6435 127.764 43.141 128.167 41.5295L126.153 40.321H128.973C128.973 40.321 128.973 37.5009 128.57 35.8898C128.57 35.0842 127.764 34.6812 127.361 34.2783C126.152 33.4727 124.944 32.2642 124.541 32.2642Z" fill="#425A6B"/>
<path d="M114.47 33.4728C114.47 33.4728 114.067 36.6954 113.261 38.7099C112.456 40.724 111.65 41.127 111.65 43.947C111.247 46.7671 112.053 63.2837 112.053 65.7008C112.053 68.1179 112.053 76.9806 112.053 76.9806C112.053 76.9806 110.844 66.5067 110.039 64.4922C109.233 62.4781 106.816 49.9897 107.622 43.1415L109.233 41.9329L108.025 41.1274C108.025 41.1274 110.845 37.9047 111.247 37.0988C111.65 36.6954 114.47 33.4728 114.47 33.4728Z" fill="#425A6B"/>
<path d="M107.622 71.7431C107.622 71.7431 111.65 72.1461 112.859 74.5632C114.067 76.9803 116.082 81.0088 116.082 81.0088C116.485 81.8144 115.276 82.6204 114.873 81.8144L113.665 79.8003L107.622 81.0088C107.622 81.0088 105.205 79.3973 103.996 76.5777C101.982 73.3546 106.413 71.3401 107.622 71.7431Z" fill="#E7C1AA"/>
<path d="M115.679 81.0083C115.679 81.0083 115.679 80.6054 115.276 80.2028C115.276 80.6057 114.873 80.6057 114.47 81.0083L114.873 81.8139C114.873 81.8139 114.873 81.8139 115.276 81.8139C115.276 81.8143 115.679 81.8143 115.679 81.0083C115.679 81.4113 115.679 81.4113 115.679 81.0083Z" fill="#E8EAE8"/>
<path d="M123.333 74.1601C123.333 74.1601 122.124 74.1601 121.721 75.3687C121.318 76.1742 117.693 79.3973 117.693 79.3973L113.261 82.6199C113.261 82.6199 111.247 83.4255 110.039 82.2169C110.039 82.2169 107.622 83.0225 108.025 81.4114C106.816 82.6199 105.608 81.4114 106.413 80.6058C105.205 81.0088 104.399 79.8002 105.608 79.3973L108.428 76.9802L112.456 73.7575C112.456 73.7575 110.845 73.7575 110.442 73.3546C110.442 73.3546 107.22 74.1601 107.22 72.146L109.234 71.743C109.234 71.743 111.248 71.3401 111.651 71.3401C112.054 71.3401 114.068 71.3401 115.679 70.9371C117.291 70.5341 120.513 68.923 123.334 69.7286C126.152 70.9375 123.333 74.1601 123.333 74.1601Z" fill="#FFE1CE"/>
<path d="M109.636 82.6199C110.039 82.6199 110.441 82.2169 110.441 82.2169C110.844 82.2169 110.844 82.2169 111.247 81.8139H111.65C111.65 81.8139 111.65 81.8139 112.053 81.8139C112.053 81.8139 112.053 81.8139 112.456 81.8139C112.859 81.4109 112.859 81.4109 113.261 81.0083C113.664 80.6054 113.664 80.6054 114.067 80.2028C114.47 80.2028 114.47 79.7998 114.47 79.7998H114.873C114.873 79.7998 114.873 79.7998 114.873 80.2028L114.47 80.6057C114.067 81.0087 114.067 81.0087 113.664 81.4113C113.261 81.8143 113.261 81.8143 112.859 82.2169C112.859 82.2169 112.859 82.2169 112.456 82.2169C112.456 82.2169 112.456 82.2169 112.053 82.2169H111.65C111.247 82.2169 110.844 82.2169 110.844 82.6199C110.441 82.2169 110.039 82.2169 109.636 82.6199Z" fill="#E7C1AA"/>
<path d="M107.622 81.8144C108.025 81.8144 108.025 81.4114 108.427 81.4114C108.83 81.4114 108.83 81.0084 109.233 81.0084C109.636 80.6055 110.038 80.6055 110.844 80.2029C111.247 79.7999 111.65 79.3973 112.456 78.9943L113.261 78.1888C113.261 78.1888 113.664 78.1888 113.664 77.7858C113.664 77.7858 114.067 77.7858 114.067 77.3828L113.664 77.7858L113.261 78.1888L112.456 78.9943C112.053 79.3973 111.65 79.7999 110.844 80.2029C110.441 80.6058 110.039 80.6058 109.233 81.0084C108.83 81.0084 108.83 81.4114 108.427 81.4114C108.024 81.4114 108.024 81.8144 107.622 81.8144Z" fill="#E7C1AA"/>
<path d="M106.01 80.6058C106.413 80.6058 106.413 80.2028 106.816 80.2028C107.219 80.2028 107.219 79.7998 107.621 79.7998C108.024 79.3968 108.427 79.3968 108.83 78.9942C109.233 78.5913 110.038 78.1887 110.441 77.7857L111.247 76.9801L111.65 76.5772C111.65 76.5772 112.053 76.5772 112.053 76.1742L111.65 76.5772L111.247 76.9801L110.441 77.7857C110.038 78.1887 109.233 78.5913 108.83 78.9942C108.427 79.3972 108.024 79.3972 107.621 79.7998C107.218 79.7998 107.218 80.2028 106.816 80.2028C106.413 80.6058 106.413 80.6058 106.01 80.6058Z" fill="#E7C1AA"/>
<path d="M105.607 80.6058C105.607 80.6058 98.3562 78.1887 95.9391 76.5772C93.5221 74.9657 94.7306 71.743 95.1336 69.7289C95.5366 68.5204 95.9391 61.6721 96.7451 55.2264H103.191V69.3259L108.025 71.3401C108.025 71.3401 105.205 71.743 103.996 74.1601C103.19 76.5772 105.607 80.6058 105.607 80.6058Z" fill="#425A6B"/>
<path d="M131.389 16.5531C131.792 16.5531 132.598 16.1501 132.598 15.7475C132.195 14.136 131.389 12.9275 131.389 10.9134C130.181 10.1078 128.972 10.5104 127.361 11.3164C128.972 12.9275 130.181 14.5386 131.389 16.5531Z" fill="#425A6B"/>
<path d="M144.281 72.9515C143.072 75.7716 139.044 76.1742 137.433 76.5771C137.03 76.5771 136.224 76.9801 135.015 76.9801C130.584 77.7857 122.527 78.5916 122.527 78.5916C122.527 78.5916 122.124 68.5203 118.499 69.7289C118.499 69.7289 120.916 68.1174 123.736 67.7148C126.556 67.7148 133.404 66.9092 133.404 66.9092H134.613L134.21 53.6153V51.6012C133.807 44.3499 139.044 38.7102 139.044 38.7102C139.044 38.7102 140.252 39.1132 140.655 42.7388C140.655 46.3644 143.878 59.2554 144.281 60.4639C144.281 62.0747 145.489 70.1315 144.281 72.9515Z" fill="#425A6B"/>
<path d="M53.6401 20.9844C53.6401 20.9844 56.0572 20.9844 56.8627 18.5673C57.6683 16.1502 57.2657 13.7332 58.8768 12.9276C60.4884 12.122 62.9054 12.9276 62.9054 15.7476H64.114C64.114 15.7476 64.517 12.122 65.7255 11.3165C67.337 10.5109 66.934 9.30234 66.934 8.4964C66.934 7.69045 67.337 6.48229 69.7541 6.48229C71.7682 6.48229 73.7827 8.09381 73.7827 8.09381C73.7827 8.09381 75.7968 5.67673 74.5883 3.66262C73.3797 2.05111 64.1144 -1.17154 59.2802 0.439974C54.446 2.05149 51.626 7.69121 51.626 10.1083C51.626 12.5254 53.6401 20.9844 53.6401 20.9844Z" fill="#425A6B"/>
<path d="M62.9058 15.3446C62.9058 17.3587 62.1002 18.5672 60.8917 18.5672C59.6831 18.5672 58.4746 16.9557 58.4746 15.3446C58.4746 13.3305 59.2802 12.1219 60.4887 12.1219C61.6973 12.1216 62.9058 13.3301 62.9058 15.3446Z" fill="#F5CFB7"/>
<path d="M64.5168 29.0412C65.7254 27.4297 66.9339 26.6241 66.9339 26.6241C65.7254 25.8185 62.0997 25.0126 58.4741 21.387C58.4741 21.3873 60.8912 25.8185 64.5168 29.0412Z" fill="#DBB29A"/>
<path d="M64.1149 29.847L62.5034 33.4727C62.5034 33.4727 64.5175 35.0842 64.5175 37.5013L66.5316 31.8615L64.1149 29.847Z" fill="#F2F2F2"/>
<path d="M62.5031 33.4728L58.0719 37.5014L50.0151 27.0275C50.0151 27.0275 51.6266 23.4019 54.0437 23.4019C54.0437 23.4019 52.4322 23.4019 53.6407 25.0134C54.0433 27.0271 62.5031 33.4728 62.5031 33.4728Z" fill="#F2F2F2"/>
<path d="M74.5881 72.9517C74.5881 72.9517 69.351 44.7523 68.9484 41.5296C68.1428 38.307 64.1143 29.4442 64.1143 29.4442L64.5172 29.0413C64.5172 29.4442 68.1428 33.0699 68.1428 33.0699C68.9484 34.2784 72.574 38.7096 73.7826 46.3638C74.9911 55.6291 74.5881 72.9517 74.5881 72.9517Z" fill="#425A6B"/>
<path d="M51.6261 24.6101C51.6261 24.6101 49.209 26.6242 48.8061 27.8328C48.0005 29.4443 48.0005 29.4443 48.0005 29.4443L51.2231 30.6528L48.8061 31.4584L62.9056 65.7004C62.9056 65.7004 60.8915 52.8095 59.6829 48.3779C58.4744 43.9467 55.2517 33.4725 53.6402 29.8469C52.4317 26.6242 51.6261 25.8186 51.6261 24.6101Z" fill="#425A6B"/>
<path d="M65.7257 78.1888L84.2568 87.0516C84.6598 87.0516 85.0623 87.0516 85.0623 87.0516L101.176 74.9662C101.579 74.5632 101.579 73.7576 101.176 73.3546L81.0341 62.4778C80.6312 62.4778 80.2286 62.4778 79.8256 62.4778L65.7261 76.5773C64.9201 77.3829 64.9201 78.1888 65.7257 78.1888Z" fill="#E8EAE8"/>
<path d="M62.0999 71.7431C62.0999 71.7431 62.9055 72.146 64.114 71.7431C65.3225 71.3401 66.5311 71.3401 67.3366 71.3401C68.1422 71.3401 70.5593 71.7431 71.7678 71.7431C72.9764 71.7431 76.602 72.9516 76.602 74.1601C76.602 75.3687 74.9905 74.9657 73.7819 74.5631C72.5734 74.1601 69.3507 73.7575 68.9478 73.7575V74.1605C68.9478 74.1605 70.9619 74.9661 71.7678 74.9661C72.1708 75.3691 74.9905 75.7717 74.9905 76.5776C74.9905 77.3835 74.9905 78.1891 73.7819 78.1891C73.7819 78.1891 73.7819 80.2032 71.7678 79.8006C71.7678 79.8006 71.3649 81.4121 69.3507 81.4121C67.7392 81.4121 66.5307 81.4121 65.7251 81.4121C65.3222 81.4121 65.3222 81.4121 64.9196 81.0092C64.114 80.6062 61.6969 79.3977 61.2939 78.9951C60.891 78.9951 58.0713 77.7865 58.0713 77.7865L62.0999 71.7431Z" fill="#F5CFB7"/>
<path d="M73.3801 78.1888C72.9771 78.1888 72.5745 78.1888 72.5745 78.1888C72.1715 78.1888 71.7689 78.1888 71.7689 78.1888C71.366 78.1888 70.9634 78.1888 70.5604 77.7858C70.1574 77.7858 69.7548 77.7858 69.3519 77.3829C68.9489 77.3829 68.5463 77.3829 68.5463 76.9799C68.1433 76.9799 67.7407 76.5769 67.7407 76.5769C67.7407 76.5769 67.7407 76.5769 68.1437 76.5769C68.1437 76.5769 68.5467 76.5769 68.9493 76.5769C69.3519 76.5769 69.7548 76.5769 69.7548 76.5769C70.1578 76.5769 70.5604 76.5769 70.9634 76.9799C71.3663 76.9799 71.7689 76.9799 72.1719 77.3829C72.5749 77.3829 72.9775 77.3829 72.9775 77.7858C72.9771 77.7858 72.9771 77.7858 73.3801 78.1888Z" fill="#DBB29A"/>
<path d="M71.3656 79.7998C71.3656 79.7998 70.9627 79.7998 70.5601 79.7998C70.1575 79.7998 69.7545 79.7998 68.9486 79.7998C68.5456 79.7998 67.74 79.7998 67.3371 79.3969C66.9341 79.3969 66.9341 79.3969 66.9341 79.3969H67.3371C67.74 79.3969 68.1426 79.3969 68.9486 79.7998C69.3515 79.7998 70.1571 79.7998 70.5601 79.7998C70.9627 79.3972 70.9627 79.3972 71.3656 79.7998C71.3656 79.3972 71.3656 79.7998 71.3656 79.7998Z" fill="#DBB29A"/>
<path d="M61.6974 72.9515C60.0859 74.9657 57.2662 78.5913 57.2662 81.8143C57.2662 81.8143 48.0008 76.5772 45.9863 75.3686C44.3748 74.5631 41.1522 72.5486 39.1381 70.9374C37.9295 70.1319 38.3325 70.1319 37.9295 69.7289C36.318 68.5204 33.9009 63.2832 33.4983 58.8521C32.6928 54.4209 31.8868 45.5581 32.2898 41.9325C33.0954 35.8898 35.5125 31.8612 37.5269 31.4586C37.5269 31.4586 42.3611 31.4586 43.5696 35.0842C44.7782 38.7099 45.9867 48.7811 45.9867 48.7811C45.9867 48.7811 45.5837 59.255 45.9867 60.4636C45.9867 60.4636 50.0153 64.0892 50.8209 65.2977C52.0294 66.5063 58.0721 69.3263 58.0721 69.3263L62.9063 71.3404L64.1148 71.7434C63.3085 71.34 62.5029 72.146 61.6974 72.9515Z" fill="#425A6B"/>
</g>
<defs>
<clipPath id="clip0_356_459">
<rect width="193" height="193" fill="white" transform="translate(-8)"/>
</clipPath>
</defs>
</svg>
