<svg width="169" height="128" viewBox="0 0 169 128" fill="none" xmlns="http://www.w3.org/2000/svg">
<g clip-path="url(#clip0_356_687)">
<path d="M29.7188 35.3527L26.0977 36.1572L30.9259 52.2515L36.5587 53.4586C36.5587 46.2162 34.1446 40.1809 29.7188 35.3527Z" fill="#344A5E"/>
<path d="M87.6577 170.544C87.6577 170.544 85.6461 141.574 84.439 119.847C83.2319 98.5222 83.2319 95.3032 83.2319 95.3032L84.8415 71.9665L116.225 70.3569L119.444 95.3028C119.444 95.3028 117.834 118.237 117.834 122.663C117.834 127.089 119.846 138.355 120.248 141.573C121.053 144.792 120.651 168.129 122.26 174.566C124.272 181.004 124.272 183.016 124.272 183.016C124.272 183.016 114.615 180.199 111.799 181.004H110.592C110.592 181.004 111.799 177.786 110.592 174.566C109.384 171.75 105.763 167.727 105.361 159.277C104.958 150.828 101.337 119.847 101.337 119.847C101.337 119.847 101.74 152.035 102.142 155.656C102.946 159.277 103.349 166.922 102.142 171.348C100.935 174.566 100.935 175.371 100.935 175.371C96.9117 171.348 92.486 168.934 87.6577 170.544Z" fill="#425A6B"/>
<path d="M94.9003 30.1218L97.3145 29.7194L103.752 32.1335L107.373 88.463C107.373 88.463 100.131 87.2559 94.4982 88.8654C88.8654 90.475 81.623 87.2559 81.623 87.2559L88.4629 33.3405L94.9003 30.1218Z" fill="#E8EAE8"/>
<path d="M95.3024 29.7194L92.0836 33.7431L91.6812 28.5123C92.0836 28.5123 93.2907 28.5123 94.4978 28.5123L95.3024 29.7194Z" fill="white"/>
<path d="M77.5988 34.5477C77.5988 34.5477 74.7822 36.5594 75.5872 39.7785C76.3918 42.9972 76.3918 48.6304 75.5872 53.8607C74.7826 59.0915 64.7236 61.9077 64.7236 61.9077C64.7236 61.9077 76.3918 78.8066 82.025 81.2207C87.6578 83.2323 88.4628 64.7243 88.4628 64.7243C88.4628 64.7243 80.4155 35.7548 77.5988 34.5477Z" fill="#425A6B"/>
<path d="M90.0721 28.1102L77.599 34.548C77.599 34.548 82.4273 43.3999 81.6227 48.6303C81.2202 53.861 82.4273 71.967 80.0131 82.4281C77.599 92.8891 76.7944 98.5223 76.7944 98.5223C76.7944 98.5223 83.2322 102.948 86.4509 92.8895C89.6697 82.8309 93.6933 65.9317 93.6933 63.92C93.6933 61.9084 93.6933 61.5059 93.6933 61.5059C93.6933 61.5059 92.8887 48.2282 91.6817 42.5954C90.8767 37.7667 90.0721 28.1102 90.0721 28.1102Z" fill="#344A5E"/>
<path d="M91.6813 26.9032L86.4506 31.7315L88.0601 32.536L85.646 34.9502C85.646 34.9502 93.693 55.0678 94.0955 59.4939C94.0955 63.9197 94.0955 63.9197 94.0955 63.9197C94.0955 63.9197 95.3025 56.6773 94.0955 47.0208C92.8884 38.1689 91.6813 26.9032 91.6813 26.9032Z" fill="#425A6B"/>
<path d="M103.751 15.8124C103.897 14.2636 103.118 12.9238 102.012 12.8199C100.906 12.7159 99.8912 13.887 99.7456 15.4358C99.6 16.9845 100.379 18.3243 101.485 18.4283C102.591 18.5323 103.606 17.3611 103.751 15.8124Z" fill="#FFE1CE"/>
<path d="M102.947 13.2231C102.545 14.8326 101.74 17.2467 101.74 18.4538C100.936 18.0513 100.131 16.8443 100.533 15.6372C100.533 14.0277 101.74 12.8206 102.545 13.2231C102.545 12.8206 102.545 13.2231 102.947 13.2231Z" fill="#FFE1CE"/>
<path d="M104.557 24.4891L98.5215 31.329C97.3145 32.5361 95.7049 32.1336 95.3028 30.9265V30.524L95.7053 30.1216L94.4982 28.512C93.6937 28.512 93.2912 28.512 92.8887 28.512H92.4862C92.4862 28.512 92.4862 28.512 92.0837 28.512C92.0837 28.512 92.0837 28.512 91.6813 28.512C91.6813 28.512 91.6813 28.512 91.2788 28.512C90.0717 28.1095 90.0717 27.7074 90.0717 27.7074C90.0717 25.6958 88.0601 24.4887 86.4505 21.6721C84.841 18.8555 86.4505 17.6485 86.048 14.4298C85.6456 11.6131 87.6576 5.98031 87.6576 5.98031C88.0601 4.77325 90.4742 3.96866 92.8883 3.56618C97.3141 2.7616 101.74 5.57783 102.947 10.004C102.947 10.4065 102.947 10.8086 102.947 10.8086C102.947 12.0156 101.74 16.4414 101.74 18.0509C101.74 19.6605 102.545 21.2696 102.545 21.2696L104.557 24.4891Z" fill="#FFE1CE"/>
<path d="M94.4976 28.5123C94.4976 28.5123 99.3258 25.2936 101.337 20.4653L96.1067 33.743L94.4976 28.5123Z" fill="#E7C1AA"/>
<path d="M99.7282 30.9264L98.5211 33.743L93.6929 32.9384L94.095 31.3289L94.8999 30.1218L96.107 29.7194L99.7282 30.9264Z" fill="#E8EAE8"/>
<path d="M100.533 59.896L95.3022 67.943L93.6926 66.3334C93.6926 65.5288 94.0951 64.7239 94.0951 64.7239C94.0951 64.7239 95.3022 57.4815 94.0951 47.825C93.6926 46.2154 93.6926 44.2038 93.2905 42.5943L94.4976 33.3402C94.4976 32.5356 96.5092 32.5356 96.5092 32.5356L97.7163 33.3402L100.533 59.896Z" fill="#F05640"/>
<path d="M97.7164 33.3405C96.9118 32.9381 95.7048 33.3405 94.4977 33.743C94.0952 34.1455 94.0952 32.1335 94.0952 30.9264L94.4977 30.1218C94.9002 30.1218 96.1072 30.1218 96.5093 30.1218C97.7164 30.5243 98.5214 33.3405 97.7164 33.3405Z" fill="#F26F5A"/>
<path d="M86.4506 10.4064C86.4506 10.4064 86.8531 7.18766 89.2672 5.9806C91.6813 4.77354 93.2909 4.77354 94.9 4.77354C96.5092 4.77354 97.7166 6.78518 97.7166 6.78518C97.7166 6.78518 96.9121 10.0039 98.9237 11.6134C100.533 12.8205 101.74 14.8321 101.74 14.8321C101.338 17.2463 101.338 19.2579 102.143 20.0629C102.143 20.0629 109.788 3.56647 99.7287 0.347387C94.9 -0.859298 85.2436 0.749867 86.4506 10.4064Z" fill="#344A5E"/>
<path d="M103.752 16.0397C103.752 17.6492 102.545 18.8563 101.74 18.4538C100.936 18.0513 100.131 16.8442 100.533 15.6372C100.533 14.0276 101.74 12.8206 102.545 13.223C102.947 13.223 102.947 13.223 102.947 13.6255C103.35 13.6255 103.752 14.8326 103.752 16.0397Z" fill="#FFE1CE"/>
<path d="M29.3164 68.7478C32.4274 68.7478 34.9493 64.6046 34.9493 59.4938C34.9493 54.3829 32.4274 50.2397 29.3164 50.2397C26.2055 50.2397 23.6836 54.3829 23.6836 59.4938C23.6836 64.6046 26.2055 68.7478 29.3164 68.7478Z" fill="#344A5E"/>
<path d="M21.6716 93.2916C21.6716 93.2916 19.66 106.972 22.8787 118.64C26.0974 130.711 22.0741 143.184 22.0741 150.024C22.0741 156.461 22.4766 167.727 22.4766 167.727C22.4766 167.727 25.6953 172.958 32.9377 169.337C32.9377 169.337 33.7423 143.586 35.3518 139.562C36.9614 135.539 37.7659 130.308 37.7659 127.492C37.7659 127.492 35.7543 144.793 35.7543 148.414C35.3518 152.036 36.1568 166.923 35.7543 169.739C35.7543 169.739 41.3871 171.349 42.9967 170.141C42.9967 170.141 48.2274 146 48.2274 142.782C48.2274 139.563 47.4228 135.137 48.6299 130.308C49.837 125.48 52.6536 104.558 53.0557 98.9248C53.4581 93.6941 53.4581 85.2446 53.4581 85.2446L34.5476 86.0492L21.6716 93.2916Z" fill="#425A6B"/>
<path d="M43.8008 23.2819L42.5938 34.1455L41.3867 40.1808L43.8008 48.6302L51.4457 49.4348L48.6291 38.9737V37.7667C48.6291 37.7667 52.6528 38.9737 53.0549 36.5596C53.4573 34.1455 53.4573 33.743 53.8594 32.9384C54.664 31.7313 55.469 30.9268 55.469 27.7077C55.469 27.7077 55.469 26.0981 55.8715 24.8911C56.274 23.684 55.8715 18.8558 52.6528 18.0512C49.8362 17.6487 42.1917 18.4537 42.1917 18.4537L43.8008 23.2819Z" fill="#FFE1CE"/>
<path d="M49.8366 42.997C42.5942 38.5713 42.9967 30.9264 42.9967 30.5239C44.2038 35.3522 49.032 38.1688 49.032 38.1688L49.8366 42.997Z" fill="#E7C1AA"/>
<path d="M40.1798 38.1688C40.1798 38.1688 47.8247 45.4112 47.8247 48.2278C47.8247 48.2278 49.0317 40.1808 48.6292 38.1688L53.86 46.6183L55.067 60.2984L52.6529 87.6584C52.6529 87.6584 42.5939 90.475 36.5586 87.2559C30.5233 83.6347 31.7304 79.6111 31.7304 79.6111L40.1798 38.1688Z" fill="#D1D1D1"/>
<path d="M49.0317 38.1688C49.0317 38.1688 57.4812 42.9971 58.6882 44.6066C59.8953 46.2162 60.2978 49.8373 60.2978 49.8373C60.2978 49.8373 61.5049 72.3691 61.5049 73.5761C61.5049 74.7832 53.86 78.8069 53.86 78.8069L55.4695 104.558C55.4695 104.558 54.6649 101.741 53.0554 101.339L51.4459 71.967C51.4459 71.9666 51.4459 43.3996 49.0317 38.1688Z" fill="#344A5E"/>
<path d="M40.9845 37.3643C40.9845 37.3643 46.2152 52.2515 47.0198 61.103C47.4223 68.7479 43.8011 84.4397 38.9728 97.3149C37.7658 100.936 33.34 102.948 29.7188 101.339L13.6245 95.7058C13.6245 95.7058 25.2927 73.5761 26.0976 70.7599C26.9022 67.9433 32.5354 55.4706 32.9375 50.6423C32.9375 50.6423 34.9492 36.5601 26.4997 36.5601C26.0976 36.1572 37.7658 32.536 40.9845 37.3643Z" fill="#344A5E"/>
<path d="M46.6178 66.3337C46.6178 66.3337 47.8249 74.3807 45.0083 75.9903C45.0083 75.9903 42.5941 67.5408 46.6178 66.3337Z" fill="#CED6E0"/>
<path d="M45.8125 66.7362C45.8125 66.7362 47.8242 67.1387 49.0312 66.7362C50.2383 66.3337 51.0429 65.9316 51.0429 65.9316H53.8595L55.8711 66.7362C55.8711 66.7362 55.8711 68.7479 53.0545 67.5408H51.445C51.445 67.5408 53.4566 68.3454 53.4566 68.7479C53.8591 69.1504 60.699 69.1504 60.699 69.1504L61.1015 69.9549H60.699C61.9061 69.9549 61.9061 71.5645 60.699 71.5645C61.9061 71.5645 61.5036 73.5761 60.699 73.5761L59.0895 73.9786C60.2965 74.3811 59.8941 75.5881 58.687 75.1857C58.687 75.1857 54.2612 73.9786 53.0542 73.9786C51.8471 73.9786 49.0305 74.7832 44.6047 72.7715C40.5811 70.7599 40.5811 70.7599 40.5811 70.7599L45.8125 66.7362Z" fill="#FFE1CE"/>
<path d="M55.8718 26.0982C55.8718 26.0982 56.2742 23.2816 55.4693 22.0745C54.6647 20.465 53.4576 19.6604 51.0435 20.0629C49.8364 20.4654 47.8248 21.2699 46.2153 22.477C45.8128 22.8795 45.4107 23.6841 45.0082 24.4886C44.6057 26.0982 44.2036 27.7073 44.2036 28.9144C44.2036 30.1215 44.2036 30.9261 44.2036 30.9261C44.2036 30.9261 44.2036 30.1215 43.8011 28.9144C43.8011 27.7073 43.8011 26.0978 44.2036 24.4886V24.0862C43.8011 24.4886 43.8011 24.8907 43.399 25.2932C42.5944 27.3049 42.9965 35.7543 42.192 38.5709C41.3874 41.3875 40.9849 40.5826 40.9849 44.2037C40.9849 47.8249 43.399 54.6648 42.192 59.4931C40.9849 64.3213 38.5708 65.5284 38.1683 67.9425C38.1683 67.9425 36.9612 65.5284 38.1683 63.5168C39.3753 61.5051 40.5824 59.4931 40.5824 57.4814C40.5824 55.4698 39.7778 52.6532 38.1683 50.6415C38.1683 50.6415 37.7658 53.8603 36.9612 55.8723C36.1566 57.8839 35.7542 60.7005 35.7542 63.9192C35.7542 63.9192 32.5355 59.091 33.34 54.6652C34.1446 50.2394 34.1446 46.6183 33.7425 44.2041C33.34 41.79 32.9379 39.3759 33.34 38.5713C33.34 38.5713 31.7305 39.3759 30.1213 42.9971C28.5118 46.2158 26.5001 48.6299 26.0977 48.6299C26.5001 48.2274 29.3164 43.8016 29.3164 42.5946C29.7188 40.985 32.133 37.7663 32.133 37.7663C32.133 37.7663 29.3164 36.5593 26.9022 36.9618C26.9022 36.9618 30.5234 33.3406 31.328 30.524C32.1326 27.7073 34.1446 18.4533 37.3633 16.0392C40.582 13.6251 45.4103 12.418 50.2385 14.8321C55.4693 15.6371 57.0788 22.477 55.8718 26.0982Z" fill="#F26F5A"/>
<path d="M46.6177 66.3338C45.4107 67.5409 45.0082 75.9903 45.0082 75.9903C42.1916 75.9903 21.6715 73.9787 20.4644 73.1737C19.2574 72.3691 18.0503 69.955 17.6478 67.943C17.2454 65.9313 18.4524 61.5052 19.2574 59.0911C20.062 56.2745 20.062 51.4462 20.8669 49.0321C22.074 47.0204 26.4998 36.1569 26.4998 36.1569C34.9492 36.5593 32.9376 50.2391 32.9376 50.2391C32.9376 51.0437 32.9376 51.8487 32.5351 53.0557C32.5351 53.0557 27.3043 63.1147 28.1093 64.3218C28.9143 65.5289 34.9492 65.5289 34.9492 65.5289L46.6177 66.3338Z" fill="#425A6B"/>
<path d="M41.7895 104.557C40.5824 105.764 40.1799 107.776 40.1799 107.776L38.5704 104.959C38.5704 104.959 38.1679 104.557 39.375 107.776C39.7774 109.386 38.5704 121.456 36.9608 133.527C36.9608 133.124 36.9608 132.722 37.3633 132.32C36.9608 135.136 36.5587 139.16 36.1562 142.379C38.1679 127.894 41.387 107.776 41.7891 106.167C42.5937 104.155 45.8128 102.143 45.8128 102.143C45.8128 102.143 42.9965 103.35 41.7895 104.557Z" fill="#344A5E"/>
<path d="M107.374 25.2937L119.847 28.1103C119.847 28.1103 115.018 34.1456 113.811 38.9739C112.604 43.8021 129.906 92.4871 129.906 92.4871L108.179 100.534C108.179 100.534 96.1079 68.3459 96.9125 60.701C98.1196 53.0562 100.936 43.8021 100.936 43.8021L107.374 25.2937Z" fill="#344A5E"/>
<path d="M100.533 61.908C100.533 61.908 96.5093 69.5528 100.13 70.3574L104.959 64.3221L100.533 61.908Z" fill="#CED6E0"/>
<path d="M103.35 63.1151C115.823 64.3221 115.42 69.5529 102.947 68.3458C102.947 68.3458 98.9235 68.3458 98.1189 68.3458C96.9119 68.3458 96.1073 70.3574 96.1073 70.3574C95.7048 71.162 95.3027 71.5645 94.4978 71.5645L92.4861 72.7716L88.4624 71.967C87.2554 71.5645 88.06 69.9553 89.267 70.3574H87.6575C86.4504 69.955 86.8529 67.5408 88.06 67.9433L87.6575 67.5408C86.4504 67.5408 86.8529 65.5292 88.06 65.5292L95.7048 66.3338L96.1073 65.9313L89.6695 64.7242C88.06 64.3217 88.4624 62.3101 90.072 62.7126L96.1073 63.1151L95.7048 62.7126C94.9002 63.1151 94.0953 63.1151 93.6932 62.7126V61.5055C94.9002 61.103 96.5098 60.7009 96.5098 60.7009C96.5098 60.7009 98.5214 61.1034 99.7285 61.908C100.936 62.7126 103.35 63.1151 103.35 63.1151Z" fill="#FFE1CE"/>
<path d="M55.4694 47.8253L54.2627 70.7595H92.8883L94.9004 47.8253H55.4694Z" fill="#E8EAE8"/>
<path d="M119.846 28.1102C121.054 28.1102 123.065 28.1102 123.87 35.3526C124.675 42.595 121.858 57.4822 121.858 59.8963C121.858 61.908 119.847 66.3341 115.823 68.3458C111.799 70.3574 100.131 69.9553 100.131 69.9553C100.131 69.9553 103.753 63.5175 100.534 61.5059C100.534 61.5059 108.983 58.6893 110.19 58.6893C111.397 58.2868 110.995 53.861 111.397 52.2515C111.8 51.0444 112.202 45.4116 112.604 42.1925C113.007 39.3759 113.409 36.9618 114.616 34.5476C115.823 31.7314 116.628 28.1102 119.846 28.1102Z" fill="#425A6B"/>
<path d="M104.154 23.6841L102.143 33.3407L96.5098 29.7195C100.533 26.0983 102.948 21.27 102.948 21.27V21.6725L104.154 23.6841Z" fill="white"/>
<path d="M103.752 23.282L111.397 27.3057L107.776 30.1223L109.787 31.7318C109.787 31.7318 98.5211 54.666 97.3141 60.7013C96.912 60.7009 100.936 28.5123 103.752 23.282Z" fill="#425A6B"/>
<path d="M34.1447 36.9618C34.1447 36.9618 32.5352 37.7664 30.926 41.3876C29.3165 44.6063 27.3048 47.0204 26.9023 47.0204C27.3048 46.6179 30.121 42.1922 30.121 40.9851C30.5235 39.3756 32.9376 36.1569 32.9376 36.1569L34.1447 36.9618Z" fill="#F26F5A"/>
<path d="M62.3095 70.7595C62.3095 70.7595 61.9071 71.5641 63.1141 71.9666C64.3212 72.3691 67.1378 71.9666 67.9424 71.9666C68.747 71.9666 71.966 73.1737 71.966 73.1737C71.966 73.1737 73.9777 75.1853 75.9897 75.5878C77.5993 75.9903 80.818 75.1853 80.818 73.5761C80.818 72.3691 79.6109 71.9666 80.4155 71.5645C81.2201 71.162 82.4271 71.5645 82.4271 70.3574H62.3095" fill="#FFE1CE"/>
</g>
<defs>
<clipPath id="clip0_356_687">
<rect width="193.53" height="193.53" fill="white" transform="translate(-25)"/>
</clipPath>
</defs>
</svg>
