<svg width="60" height="60" viewBox="0 0 60 60" fill="none" xmlns="http://www.w3.org/2000/svg">
<g clip-path="url(#clip0_338_304)">
<path d="M58.7638 15.597C58.0721 13.0267 56.0456 11.0006 53.4757 10.3085C48.7805 9.02356 29.9994 9.02356 29.9994 9.02356C29.9994 9.02356 11.2188 9.02356 6.52356 10.2595C4.00313 10.9512 1.92718 13.0271 1.2355 15.597C0 20.2918 0 30.0284 0 30.0284C0 30.0284 0 39.814 1.2355 44.4598C1.92763 47.0297 3.95369 49.0562 6.52402 49.7483C11.2683 51.0333 29.9999 51.0333 29.9999 51.0333C29.9999 51.0333 48.7805 51.0333 53.4757 49.7973C56.0461 49.1056 58.0721 47.0791 58.7642 44.5093C59.9997 39.814 59.9997 30.0779 59.9997 30.0779C59.9997 30.0779 60.0492 20.2918 58.7638 15.597Z" fill="white"/>
<path d="M24.02 39.0235L39.6375 30.0284L24.02 21.0334V39.0235Z" fill="#CD2121"/>
</g>
<defs>
<clipPath id="clip0_338_304">
<rect width="60" height="60" fill="white"/>
</clipPath>
</defs>
</svg>
