<svg width="166" height="143" viewBox="0 0 166 143" fill="none" xmlns="http://www.w3.org/2000/svg">
<path fill-rule="evenodd" clip-rule="evenodd" d="M10.0002 38.366C4.47737 38.366 0.000217642 42.8431 0.000217642 48.366V69.6533C7.26221e-05 69.6756 0 69.6978 0 69.72V133C0 138.523 4.47714 143 9.99998 143H155.671C161.194 143 165.671 138.523 165.671 133V69.72C165.671 64.1972 161.194 59.72 155.671 59.72H79.429C73.1583 59.72 68.0749 54.6366 68.0749 48.366C68.0749 42.8431 63.5978 38.366 58.0749 38.366H10.0002Z" fill="#434343"/>
<path d="M41.854 5.23181H149.195V11.3963V104.634H41.854V11.3963V5.23181Z" fill="#C1C1C1"/>
<path d="M39.2378 2.61584H146.579V8.78034V102.018H39.2378V8.78034V2.61584Z" fill="#ECECEC"/>
<path d="M35.75 0.00012207H143.091V6.16461V99.4025H35.75V6.16461V0.00012207Z" fill="white"/>
<rect x="49.3379" y="41.6656" width="83" height="7" rx="3.5" fill="#E4E4E4"/>
<rect x="49.3379" y="55.6656" width="47" height="7" rx="3.5" fill="#E4E4E4"/>
<rect x="49.3379" y="69.6656" width="63" height="7" rx="3.5" fill="#E4E4E4"/>
<rect x="49.3379" y="83.6656" width="32" height="7" rx="3.5" fill="#E4E4E4"/>
<rect x="49.3379" y="11.1473" width="18.311" height="18.311" rx="9.15549" fill="#E4E4E4"/>
<path fill-rule="evenodd" clip-rule="evenodd" d="M10.0002 54.933C4.47737 54.933 0.000217642 59.4101 0.000217642 64.933V83.2136C7.26221e-05 83.2358 0 83.258 0 83.2802V133C0 138.523 4.47715 143 10 143H146.951C152.474 143 156.951 138.523 156.951 133V83.2802C156.951 77.7574 152.474 73.2802 146.951 73.2802H73.7438C69.1337 73.2802 65.3965 69.543 65.3965 64.933C65.3965 59.4101 60.9194 54.933 55.3966 54.933H10.0002Z" fill="#505050"/>
</svg>
