<svg width="136" height="115" viewBox="0 0 136 115" fill="none" xmlns="http://www.w3.org/2000/svg">
<circle cx="91.3994" cy="39.9068" r="39.9067" fill="#505050"/>
<g clip-path="url(#clip0_359_862)">
<path d="M110.709 59.2166C110.715 63.2711 109.217 67.1815 106.51 70.1809C106.51 70.1916 106.501 70.2002 106.491 70.2002C106.491 70.2387 106.471 70.2579 106.471 70.2964C106.113 72.2428 105.497 74.132 104.639 75.9132C103.052 79.2632 100.689 82.1793 97.7484 84.4154H97.7293C97.3666 84.6847 97.004 84.954 96.6222 85.204C96.5618 85.2534 96.498 85.2984 96.4313 85.3387C95.2633 86.0957 94.0304 86.7459 92.7474 87.2815L92.8047 87.3392C93.7892 88.2423 94.6609 89.2629 95.4006 90.3784C99.7908 96.7455 100.841 106.036 101.089 110.095C101.115 110.622 100.925 111.136 100.565 111.518C100.204 111.9 99.7032 112.115 99.18 112.115H93.3582C92.4356 112.118 91.6379 111.467 91.4494 110.557C90.8959 107.671 88.7581 101.535 80.1686 98.6498C70.8156 95.5144 67.8188 92.3597 67.0362 87.1084C66.8673 85.8333 66.7908 84.5475 66.8072 83.2612C63.5031 83.2608 60.228 82.6411 57.1488 81.4338C53.3641 85.861 47.5214 87.9142 41.8256 86.8186C36.1299 85.723 31.4484 81.6455 29.5479 76.1248C28.3912 76.548 27.2043 76.8824 25.9975 77.125C24.6616 77.3637 23.3077 77.486 21.9509 77.4905C9.82778 77.4905 2.52385e-05 67.5866 2.52385e-05 55.3694C-0.00501841 52.0491 0.745944 48.7719 2.19512 45.7901C2.78728 44.5123 3.51017 43.3003 4.35203 42.1737C4.23652 41.8465 4.1409 41.5125 4.06572 41.1735C3.89637 40.4682 3.81304 39.7447 3.81758 39.0191C3.8205 34.4257 7.03996 30.4728 11.5099 29.5743C11.4718 29.1973 11.4527 28.8185 11.4527 28.4394C11.4473 27.5136 11.5498 26.5904 11.7581 25.6887C13.0341 19.987 18.0597 15.9369 23.8597 15.9362C25.7255 15.9301 27.5676 16.3579 29.2425 17.1865C31.9948 12.5113 36.6698 9.31372 41.9975 8.46227C47.3252 7.61081 52.7525 9.19391 56.8052 12.7816C58.6938 9.7248 62.1185 7.98723 65.68 8.27889C69.2414 8.57055 72.3428 10.8426 73.7169 14.1665C74.5915 14.0662 75.4708 14.0149 76.351 14.0127C88.2625 14.0109 98.1873 23.2098 99.18 35.1719H99.2563C102.655 35.1701 105.798 36.99 107.509 39.9499C109.219 42.9098 109.239 46.563 107.559 49.541C109.611 52.3426 110.716 55.7345 110.709 59.2166Z" fill="#FB7B76"/>
<path d="M22.142 32.8829C21.8141 33.1374 21.4106 33.273 20.9967 33.2676C20.3968 33.2638 19.8327 32.9795 19.4697 32.4982C17.6947 30.1341 14.7445 28.9866 11.8537 29.5359C11.7404 29.5582 11.6255 29.5711 11.5101 29.5744C11.472 29.1973 11.4529 28.8185 11.4528 28.4395C11.4474 27.5137 11.5499 26.5905 11.7582 25.6888C15.8915 25.1085 20.0121 26.8314 22.5237 30.1899C23.1563 31.0398 22.9853 32.2455 22.142 32.8829Z" fill="#DF4D60"/>
<path d="M106.471 70.2963C106.113 72.2428 105.496 74.1319 104.639 75.9131C102.348 76.957 99.8618 77.4948 97.3475 77.4905C94.4866 77.4906 91.6667 76.8049 89.1206 75.49C87.6771 74.7551 86.3411 73.823 85.1504 72.72C80.4776 74.9557 74.889 73.0042 72.5906 68.3343C72.2217 67.7165 72.2267 66.9426 72.6034 66.3297C72.9802 65.7167 73.6655 65.3675 74.3787 65.4251C75.0919 65.4827 75.7132 65.9374 75.9883 66.6031C77.1682 69.0116 79.8411 70.2812 82.4356 69.6655C85.03 69.0497 86.8598 66.7115 86.8492 64.0255C86.8488 63.1299 86.6396 62.247 86.2384 61.4479C85.7788 60.4964 86.161 59.3493 87.0973 58.8703C88.0358 58.3953 89.1787 58.7735 89.6551 59.7167C91.3944 63.2034 90.8581 67.4051 88.2999 70.3348C89.0832 71.0095 89.9415 71.5905 90.8576 72.066C95.942 74.6929 102.093 73.9958 106.471 70.2963Z" fill="#DF4D60"/>
<path d="M92.8048 87.3392C93.7893 88.2424 94.661 89.263 95.4007 90.3785C93.2902 91.3926 91.0472 92.0985 88.7391 92.4752C88.6381 92.4912 88.5359 92.4976 88.4337 92.4944C87.4971 92.4923 86.6986 91.8096 86.544 90.8786C86.4639 90.3759 86.5861 89.8617 86.8835 89.45C87.1809 89.0384 87.6289 88.7633 88.1283 88.6857C89.7311 88.4098 91.2993 87.9583 92.8048 87.3392Z" fill="#DF4D60"/>
<path d="M75.225 85.8581C73.1506 86.49 71.0119 86.8836 68.8497 87.0315C68.2962 87.0892 67.6663 87.1084 67.0364 87.1084C66.8675 85.8333 66.791 84.5476 66.8073 83.2613C67.3991 83.2613 67.9908 83.2421 68.5634 83.1843C70.4479 83.0632 72.312 82.721 74.1179 82.1649C74.7726 81.9656 75.483 82.1334 75.9816 82.6051C76.4802 83.0768 76.6912 83.7807 76.5352 84.4517C76.3791 85.1227 75.8797 85.6588 75.225 85.8581Z" fill="#DF4D60"/>
<path d="M30.6552 63.3522C29.3274 65.5904 28.6281 68.1502 28.6319 70.7579C28.628 72.3637 28.8992 73.958 29.4336 75.4707C29.5085 75.6805 29.5473 75.9017 29.5481 76.1247C28.3914 76.5479 27.2046 76.8823 25.9978 77.125C25.939 77.0133 25.888 76.8976 25.8451 76.7787C25.1609 74.8464 24.8122 72.8096 24.8144 70.7579C24.8144 70.4309 24.8716 70.1232 24.8716 69.7962H24.8144C19.5434 69.7962 15.2705 65.4901 15.2705 60.1783C15.2703 59.1095 16.1189 58.2372 17.1793 58.2163C17.6811 58.2091 18.1649 58.4041 18.5233 58.7581C18.8818 59.1121 19.0851 59.5956 19.0881 60.1014V60.1783C19.0975 63.3614 21.6557 65.9395 24.8144 65.949C25.032 65.9489 25.2491 65.9296 25.4634 65.8913C25.9027 64.2984 26.551 62.7717 27.3912 61.3517C27.948 60.4499 29.1166 60.1597 30.0253 60.6977C30.9242 61.2572 31.2057 62.4434 30.6552 63.3522Z" fill="#DF4D60"/>
<path d="M27.3128 23.7863C27.1491 23.7859 26.9862 23.7646 26.8279 23.7228C26.3378 23.594 25.9185 23.274 25.6625 22.8335C25.4065 22.393 25.3348 21.868 25.4632 21.3741C27.2312 14.6076 32.3485 9.24535 38.9889 7.20097C45.6292 5.15659 52.8465 6.72139 58.0651 11.3369C58.6041 11.7829 58.8588 12.4895 58.7296 13.1802C58.6003 13.8708 58.1076 14.4354 57.4444 14.6528C56.7813 14.8703 56.0532 14.7059 55.5455 14.2242C52.5909 11.6061 48.7906 10.1631 44.8563 10.1655C39.1279 10.1855 33.827 13.2228 30.8803 18.1733C30.1179 19.4774 29.5397 20.8824 29.1624 22.3474C28.9432 23.1957 28.1826 23.7874 27.3128 23.7863Z" fill="#DF4D60"/>
<path d="M74.4423 19.7834C73.3881 19.7834 72.5336 18.9221 72.5336 17.8598C72.5336 13.6104 69.1152 10.1655 64.8985 10.1655C60.6817 10.1655 57.2634 13.6104 57.2634 17.8598C57.2634 18.9221 56.4088 19.7834 55.3546 19.7834C54.3004 19.7834 53.4458 18.9221 53.4458 17.8598C53.4458 11.4856 58.5733 6.31836 64.8985 6.31836C71.2236 6.31836 76.3511 11.4856 76.3511 17.8598C76.3511 18.37 76.15 18.8592 75.792 19.22C75.4341 19.5807 74.9486 19.7834 74.4423 19.7834Z" fill="#DF4D60"/>
<path d="M103.284 55.4271C102.389 55.4278 101.613 54.8017 101.419 53.9213C101.225 53.0409 101.664 52.1426 102.474 51.7608C103.917 51.0821 105.117 49.971 105.91 48.5792C107.699 45.4069 107.031 41.4048 104.311 38.9969C101.59 36.589 97.566 36.4376 94.6752 38.6344C94.1296 39.0467 93.4072 39.1344 92.7801 38.8644C92.153 38.5945 91.7164 38.0079 91.6348 37.3256C91.5533 36.6433 91.8391 35.969 92.3846 35.5566C95.855 32.9337 100.498 32.5118 104.378 34.4668C108.258 36.4218 110.709 40.4182 110.709 44.7898C110.715 49.2771 108.133 53.359 104.093 55.2463C103.84 55.3656 103.563 55.4273 103.284 55.4271Z" fill="#DF4D60"/>
<path d="M55.3543 69.5151C57.0132 69.5151 58.3581 67.9782 58.3581 66.0822C58.3581 64.1863 57.0132 62.6494 55.3543 62.6494C53.6954 62.6494 52.3506 64.1863 52.3506 66.0822C52.3506 67.9782 53.6954 69.5151 55.3543 69.5151Z" fill="white"/>
<path d="M55.3607 56.642C53.5099 56.6458 51.979 55.2271 51.8743 53.4111L50.6398 32.7979C50.586 31.8567 50.9291 30.9352 51.5886 30.2505C52.248 29.5657 53.1653 29.1783 54.1246 29.1793H56.5903C57.5499 29.179 58.4672 29.5678 59.1256 30.254C59.784 30.9402 60.1251 31.8629 60.0685 32.8044L58.8406 53.4111C58.736 55.2246 57.2089 56.6423 55.3607 56.642Z" fill="white"/>
</g>
<g clip-path="url(#clip1_359_862)">
<path d="M24.5354 98.1564L21.6533 95.5939L26.5848 92.9412L16.8425 95.0567L19.7247 97.6193L14.7931 100.272L24.5354 98.1564Z" fill="#B0B0B0"/>
</g>
<g clip-path="url(#clip2_359_862)">
<path d="M128.743 12.5518L122.215 11.219L127.287 2.98153L114.559 14.5845L121.087 15.9172L116.015 24.1547L128.743 12.5518Z" fill="#FFD83B"/>
</g>
<g clip-path="url(#clip3_359_862)">
<path d="M125.953 80.5836L123.884 77.0339L129.756 75.9826L119.192 74.8957L121.26 78.4454L115.388 79.4967L125.953 80.5836Z" fill="#ECECEC"/>
</g>
<defs>
<clipPath id="clip0_359_862">
<rect width="110.709" height="111.567" fill="white" transform="translate(0 3.43298)"/>
</clipPath>
<clipPath id="clip1_359_862">
<rect width="13.3137" height="13.3137" fill="white" transform="translate(20.1372 87.2085) rotate(41.6409)"/>
</clipPath>
<clipPath id="clip2_359_862">
<rect width="23" height="23" fill="white" transform="translate(112.684 0.00012207) rotate(11.5391)"/>
</clipPath>
<clipPath id="clip3_359_862">
<rect width="14.1832" height="14.1832" fill="white" transform="translate(125.128 68.0417) rotate(59.7665)"/>
</clipPath>
</defs>
</svg>
