<svg width="176" height="123" viewBox="0 0 176 123" fill="none" xmlns="http://www.w3.org/2000/svg">
<path d="M79.793 109.648C79.793 109.648 81.1907 120.829 81.1907 125.954C81.1907 130.613 83.0545 150.647 84.9178 158.567C87.2471 166.953 92.8379 195.373 92.8379 195.373C92.8379 195.373 87.7131 198.634 82.588 196.305C82.588 196.305 76.5312 181.396 75.1335 176.271C73.7358 171.612 70.4744 159.033 70.4744 159.033C70.4744 159.033 64.8836 142.26 62.0882 132.477C59.2929 122.693 54.6337 118.034 54.6337 118.034C54.6337 118.034 53.2361 120.363 52.77 123.624C52.304 126.886 48.5769 150.647 47.6453 153.907C46.7136 157.169 48.1113 195.838 48.5769 198.634C48.5769 198.634 40.6568 200.497 38.3271 197.702C38.3271 197.702 35.9977 186.986 34.6 180.93C33.2023 174.873 32.2707 154.374 32.7363 145.987C33.2023 137.135 29.0093 111.511 29.0093 111.511L45.7816 84.489L67.213 85.4207L79.793 109.648Z" fill="#425A6B"/>
<path d="M83.0539 80.2965L76.9971 75.6374L77.9287 61.6605L81.1901 58.8651C81.1901 58.8651 80.7241 69.115 81.6562 71.9104C82.1222 73.7741 82.5878 77.5011 83.0539 79.3649C83.0539 79.8309 83.0539 80.2965 83.0539 80.2965Z" fill="#344A5E"/>
<path d="M47.1802 15.5371C47.1802 15.5371 45.3164 26.7186 46.7141 34.6387C48.1118 42.0932 48.1118 42.0932 48.1118 42.0932C48.1118 42.0932 54.6342 29.514 54.6342 28.1163C54.6342 26.7186 51.3728 15.071 50.9072 15.071C51.3732 15.5371 47.1802 15.5371 47.1802 15.5371Z" fill="#F26F5A"/>
<path d="M61.1567 44.8886C65.7882 44.8886 69.5428 39.6739 69.5428 33.2411C69.5428 26.8083 65.7882 21.5935 61.1567 21.5935C56.5251 21.5935 52.7705 26.8083 52.7705 33.2411C52.7705 39.6739 56.5251 44.8886 61.1567 44.8886Z" fill="#F26F5A"/>
<path d="M53.2368 36.968C54.1685 41.6271 57.4299 44.8881 61.1569 44.8881C64.8839 44.8881 68.1454 41.6267 69.077 36.968H53.2368Z" fill="#F26F5A"/>
<path d="M72.8048 16.0027C71.8732 15.5366 70.9411 15.5366 70.0095 15.5366C66.2824 15.5366 63.021 18.798 63.021 22.5251C63.021 26.2521 66.2824 29.5135 70.0095 29.5135C70.9411 29.5135 71.8732 29.5135 72.8048 29.0475V16.0027Z" fill="#F26F5A"/>
<path d="M51.3735 11.3441C51.3735 11.3441 50.4418 22.5256 49.9758 23.9233C49.9758 25.321 46.2488 31.8434 46.2488 31.8434L45.7827 45.3543L51.3735 52.3427L57.8959 53.2744L62.555 43.0245C62.555 43.0245 58.3619 36.9677 58.3619 35.57C58.3619 34.1723 58.3619 33.7063 58.3619 33.7063C58.3619 33.7063 61.1573 34.1723 62.0889 33.7063C62.555 32.7746 63.9527 31.8425 64.4183 31.3769C64.8843 30.9109 67.6797 28.1155 68.6113 23.9224C68.6113 23.9224 68.6113 21.5931 69.543 20.661C70.009 20.195 70.4746 19.7294 70.4746 19.2633C71.4063 16.934 71.4063 14.1386 71.4063 10.8772L66.7472 5.75245L59.2927 4.8208L51.3735 11.3441Z" fill="#F5CFB7"/>
<path d="M46.7141 30.9117C46.7141 30.9117 49.0434 38.8318 49.9755 41.6272C51.3732 44.8886 56.4979 51.4111 56.4979 51.4111C56.4979 51.4111 61.157 41.6272 61.157 37.4342L67.2138 47.684L68.6115 69.581L70.0092 87.751C70.0092 87.751 60.6914 92.4101 52.3053 89.6147C43.9192 86.8194 43.4531 85.8877 43.4531 85.4217C43.4531 84.9556 43.4531 46.7524 43.4531 46.7524C43.4531 46.7524 43.9187 34.1727 46.7141 30.9117Z" fill="#E8EAE8"/>
<path d="M60.6909 77.0354C60.6909 77.0354 61.6226 94.7394 65.35 108.716C66.2817 112.443 70.0092 114.773 74.2022 114.307C77.4637 113.375 81.6567 112.909 82.5884 112.909C82.5884 112.909 82.1224 104.057 79.793 98.4664C77.4637 93.3417 75.1339 74.2396 75.5999 71.9103C75.1339 68.6493 60.6909 77.0354 60.6909 77.0354Z" fill="#344A5E"/>
<path d="M37.8622 78.8986L26.6807 111.977C26.6807 111.977 38.7938 114.307 47.18 115.239C51.3731 115.705 55.1001 112.909 55.5661 108.716C56.4978 100.33 58.3615 86.8192 58.3615 81.2284C58.3615 72.3762 55.1001 70.5129 55.1001 70.5129L37.8622 78.8986Z" fill="#344A5E"/>
<path d="M28.5439 39.7633V43.9564L38.7938 68.1831L50.4414 69.5808L54.1684 65.3878V61.1947L47.646 59.331L28.5439 39.7633Z" fill="#344A5E"/>
<path d="M41.1231 66.3195C41.5892 67.7172 43.9185 67.7172 44.8501 66.7856L54.634 64.4562L51.3725 56.0701L42.5204 34.6387C42.5204 34.6387 35.0659 37.4341 32.2705 37.4341C30.4068 37.4341 29.4751 38.3657 28.5435 39.2978C31.3388 42.0932 35.998 47.2179 37.3956 50.9454C38.7938 56.5357 40.6575 64.9218 41.1231 66.3195Z" fill="#344A5E"/>
<path d="M64.4183 8.54848C64.4183 8.54848 61.1569 9.01453 59.2936 10.4122C57.4298 11.8099 54.1689 16.003 52.3051 15.0713C49.9758 14.1397 49.9758 13.6736 49.9758 13.6736C49.9758 13.6736 48.5781 18.3328 48.5781 22.9914C48.5781 27.6501 48.5781 27.6505 48.5781 27.6505C48.5781 27.6505 46.2488 20.6621 47.1804 16.003C48.1121 11.3439 49.9758 4.82145 53.7028 2.49212C57.8959 0.162777 62.089 -0.303265 64.8843 0.162778C67.6797 1.09443 68.1458 3.4242 70.0091 4.35585C72.3384 5.2875 73.7361 6.68519 74.2021 8.08288C74.6682 9.48057 75.1338 12.742 75.5998 14.6053C76.0658 16.469 77.4635 21.1277 76.9975 22.9914C76.9975 24.8552 74.2021 27.1845 74.2021 29.0482C74.2021 30.912 78.8612 38.366 80.7245 39.7637C82.5883 41.1614 81.6562 50.9452 81.1906 54.2067C81.1906 54.2067 80.2589 52.809 79.3268 51.8773C79.3268 51.8773 80.2585 53.275 80.2585 56.0704C80.2585 56.0704 79.3268 53.275 76.0654 51.8773C72.804 50.4796 70.4747 50.9457 70.0086 49.548C70.0086 49.548 70.0086 51.4117 71.4063 52.3434C72.338 53.275 73.7356 53.275 74.2017 55.1387C74.6677 57.0025 74.6677 58.4002 74.6677 58.4002C74.6677 58.4002 74.6677 56.5364 73.7361 55.6048C72.8044 54.6731 70.0091 53.7411 69.543 52.8094C69.077 51.8778 68.1453 49.548 66.7476 48.6163C65.816 47.6847 60.6908 39.7641 60.2252 38.8325C60.2252 37.9009 64.8843 30.9124 66.282 29.0487C67.6797 27.651 71.8728 22.0602 72.3388 21.1286C72.8049 19.7309 70.4751 18.3332 70.0095 16.9355C70.0095 16.0038 70.0095 14.6062 70.0095 13.2085C70.0095 11.8108 68.6114 9.01409 64.4183 8.54848Z" fill="#F26F5A"/>
<path d="M52.2906 16.3735C52.1783 14.0605 51.2538 12.2259 50.2258 12.2758C49.1977 12.3258 48.4553 14.2413 48.5676 16.5543C48.6799 18.8673 49.6044 20.7018 50.6325 20.6519C51.6606 20.602 52.4029 18.6865 52.2906 16.3735Z" fill="#F5CFB7"/>
<path d="M68.6113 74.2401C68.6113 74.2401 69.543 66.32 75.5998 66.7856V72.8424C75.1337 73.308 73.736 77.9672 68.6113 74.2401Z" fill="#E8EAE8"/>
<path d="M46.714 30.9117L39.7256 37.4342L42.521 38.8318L40.6572 41.1612C40.6572 41.1612 55.5658 64.4559 57.4295 70.5127C57.4295 70.5127 56.4979 57.9335 54.1681 52.3427C51.3732 47.218 45.3163 36.0365 46.714 30.9117Z" fill="#425A6B"/>
<path d="M44.8507 66.7856C43.453 67.2516 41.5893 67.2516 41.1237 66.3195C40.6576 64.9219 39.2599 56.5357 37.3966 51.411C35.9989 47.684 31.3398 42.5588 28.5444 39.7634C28.5444 40.2295 28.0784 40.2295 28.0784 40.6951C27.1468 42.0928 26.2147 56.0697 28.0784 62.5921C29.9421 69.1145 35.5329 79.8304 36.4646 80.7621C37.3962 81.6937 40.1916 81.6937 42.0553 81.6937C43.9191 81.6937 55.1006 76.569 55.1006 76.569L57.4299 70.9782L66.2821 60.7283L44.8507 66.7856Z" fill="#425A6B"/>
<path d="M91.9059 49.5473L71.8722 77.9672L71.4062 78.4332L49.9748 77.9672C49.5088 77.9672 49.0432 77.5011 49.5088 76.5695L68.1448 46.752H68.6108L91.4399 48.1496C91.9059 48.6157 92.372 49.0817 91.9059 49.5473Z" fill="#D1D1D1"/>
<path d="M75.1339 57.0017L74.6679 55.1379C74.6679 55.1379 71.8725 55.1379 72.3385 58.865C72.3385 58.865 72.3385 60.7287 71.8725 61.1943C71.4064 61.6603 70.0088 61.6603 69.5432 61.1943C69.0771 60.7283 67.2138 59.7966 67.2138 59.7966C67.2138 59.7966 64.8845 57.4673 64.4184 57.4673C64.4184 57.4673 62.0891 55.1379 61.6231 55.1379C60.6914 55.1379 60.2254 55.604 60.2254 56.0696C60.2254 56.5356 61.6231 57.9333 62.0891 58.3989C62.5551 59.3306 65.3505 62.126 65.8161 62.592C65.8161 62.592 66.7478 63.9897 64.8845 63.058C63.4868 62.1264 60.2254 59.331 59.2937 58.3989C58.3621 57.4673 57.43 56.0696 56.4983 56.0696C55.5667 56.0696 55.5667 57.0012 56.0323 57.9333C56.4983 58.3994 58.3616 60.7287 58.8277 61.1947C59.2937 61.6608 60.2254 63.0585 61.157 63.5241C62.0887 63.9901 63.9524 64.9218 63.9524 64.9218C63.9524 64.9218 62.0887 64.4557 61.157 63.9901L58.3616 61.1947L56.4979 61.6608L58.8272 65.8539L59.7589 66.7855L62.0882 67.2515C62.0882 67.2515 59.7589 66.7855 58.8268 66.3199C58.3608 65.8539 56.0314 64.4562 56.0314 64.4562C55.0998 63.9901 54.1677 64.4562 54.6337 65.3878L56.0314 66.7855C56.0314 66.7855 57.8951 68.1832 58.3608 68.1832C59.2924 68.1832 61.6222 69.1148 62.5538 69.1148C62.5538 69.1148 65.3492 70.5125 66.2808 71.4442C67.2125 71.9102 68.6102 72.3758 69.5423 73.3079C70.4739 74.2396 73.2693 78.8987 73.2693 78.8987L77.4624 76.5693L76.5307 70.5125C76.5307 70.5125 75.133 67.2511 75.133 66.3195C75.133 64.9218 75.5991 62.1264 75.5991 62.1264C75.5991 62.1264 75.133 59.7971 75.133 59.331C75.5999 57.9333 75.6 57.4677 75.1339 57.0017Z" fill="#F5CFB7"/>
<path d="M57.4299 62.1264L56.4983 61.6604C56.4983 61.6604 56.4983 61.1943 56.0322 61.1943V59.3306C56.0322 59.3306 57.4299 57.9329 58.3616 61.6599L57.4299 62.1264Z" fill="#F5CFB7"/>
<path d="M75.1342 57.0017C73.2705 57.0017 74.6682 55.1379 74.6682 55.1379L75.1342 57.0017Z" fill="white"/>
<path d="M55.5669 57.0016C55.5669 57.0016 56.0329 56.5356 56.4985 56.0699C56.4985 56.0699 57.4302 57.0016 57.8962 57.4676C57.8962 57.9337 57.4302 58.3993 56.9646 58.3993C56.499 58.3993 55.5669 57.0016 55.5669 57.0016Z" fill="white"/>
<path d="M60.6909 55.604C60.6909 55.604 61.157 55.1379 61.6226 55.1379C62.0886 55.1379 62.5542 56.0696 62.5542 56.0696C62.5542 56.0696 62.0882 57.0012 61.6226 57.0012C61.157 57.0017 60.6909 55.604 60.6909 55.604Z" fill="white"/>
<path d="M56.0322 58.8654C56.0322 58.8654 56.9639 59.3314 56.9639 59.797C56.9639 60.7287 56.0322 60.7286 56.0322 60.7286C56.0322 60.7286 56.0322 59.331 56.0322 58.8654Z" fill="white"/>
<path d="M56.0325 65.8539C56.0325 66.3199 54.6348 64.9223 54.6348 64.9223C54.6348 64.4562 55.1008 63.9906 55.5664 63.9906C56.0325 64.4562 56.0325 65.8539 56.0325 65.8539Z" fill="white"/>
<path d="M75.5998 67.2516C75.5998 67.2516 75.1337 77.0354 68.6113 74.7061C68.6113 74.7061 72.3384 82.1606 73.2704 83.5583C74.2021 84.956 76.0658 86.3536 76.9975 86.3536C77.9291 86.3536 83.5199 84.0243 83.0543 79.8312C82.1226 75.6382 77.9295 70.5134 77.9295 70.5134L75.5998 67.2516Z" fill="#425A6B"/>
</svg>
