<svg width="437" height="151" viewBox="0 0 437 151" fill="none" xmlns="http://www.w3.org/2000/svg">
<g filter="url(#filter0_d)">
<path fill-rule="evenodd" clip-rule="evenodd" d="M24 0C12.9543 0 4 8.95431 4 20V122.437C4 133.889 13.598 143.003 25.0349 142.41L332.748 126.466L346.213 113L358.352 125.139L414.035 122.254C424.664 121.703 433 112.924 433 102.28V20C433 8.95431 424.046 0 413 0H24Z" fill="#CD2121"/>
</g>
<path d="M134.2 50.8H142.328V62H140.84V52.208H135.688V62H134.2V50.8ZM151.339 60.992C150.529 61.8027 149.531 62.208 148.347 62.208C147.163 62.208 146.166 61.8027 145.355 60.992C144.545 60.1813 144.139 59.184 144.139 58C144.139 56.816 144.545 55.8187 145.355 55.008C146.166 54.1973 147.163 53.792 148.347 53.792C149.531 53.792 150.529 54.1973 151.339 55.008C152.161 55.8293 152.571 56.8267 152.571 58C152.571 59.1733 152.161 60.1707 151.339 60.992ZM148.347 60.848C149.147 60.848 149.819 60.576 150.363 60.032C150.907 59.488 151.179 58.8107 151.179 58C151.179 57.1893 150.907 56.512 150.363 55.968C149.819 55.424 149.147 55.152 148.347 55.152C147.558 55.152 146.891 55.424 146.347 55.968C145.803 56.512 145.531 57.1893 145.531 58C145.531 58.8107 145.803 59.488 146.347 60.032C146.891 60.576 147.558 60.848 148.347 60.848ZM157.972 62.208C156.767 62.208 155.764 61.808 154.964 61.008C154.164 60.1973 153.764 59.1947 153.764 58C153.764 56.8053 154.164 55.808 154.964 55.008C155.764 54.1973 156.767 53.792 157.972 53.792C158.762 53.792 159.471 53.984 160.1 54.368C160.73 54.7413 161.199 55.248 161.508 55.888L160.34 56.56C160.138 56.1333 159.823 55.792 159.396 55.536C158.98 55.28 158.506 55.152 157.972 55.152C157.172 55.152 156.5 55.424 155.956 55.968C155.423 56.5227 155.156 57.2 155.156 58C155.156 58.7893 155.423 59.4613 155.956 60.016C156.5 60.56 157.172 60.832 157.972 60.832C158.506 60.832 158.986 60.7093 159.412 60.464C159.839 60.208 160.164 59.8667 160.388 59.44L161.572 60.128C161.22 60.768 160.724 61.2747 160.084 61.648C159.444 62.0213 158.74 62.208 157.972 62.208ZM169.474 54H170.962V62H169.602V56.192L167.058 60.288H166.882L164.338 56.192V62H162.962V54H164.45L166.962 58.048L169.474 54ZM179.839 60.992C179.029 61.8027 178.031 62.208 176.847 62.208C175.663 62.208 174.666 61.8027 173.855 60.992C173.045 60.1813 172.639 59.184 172.639 58C172.639 56.816 173.045 55.8187 173.855 55.008C174.666 54.1973 175.663 53.792 176.847 53.792C178.031 53.792 179.029 54.1973 179.839 55.008C180.661 55.8293 181.071 56.8267 181.071 58C181.071 59.1733 180.661 60.1707 179.839 60.992ZM176.847 60.848C177.647 60.848 178.319 60.576 178.863 60.032C179.407 59.488 179.679 58.8107 179.679 58C179.679 57.1893 179.407 56.512 178.863 55.968C178.319 55.424 177.647 55.152 176.847 55.152C176.058 55.152 175.391 55.424 174.847 55.968C174.303 56.512 174.031 57.1893 174.031 58C174.031 58.8107 174.303 59.488 174.847 60.032C175.391 60.576 176.058 60.848 176.847 60.848ZM181.504 54H188.352V55.344H185.632V62H184.24V55.344H181.504V54ZM193.988 53.792C195.108 53.792 196.062 54.2027 196.852 55.024C197.641 55.8453 198.036 56.8373 198.036 58C198.036 59.1733 197.641 60.1707 196.852 60.992C196.073 61.8027 195.118 62.208 193.988 62.208C192.665 62.208 191.657 61.68 190.964 60.624V65.2H189.572V54H190.964V55.376C191.657 54.32 192.665 53.792 193.988 53.792ZM193.812 60.864C194.612 60.864 195.284 60.592 195.828 60.048C196.372 59.4827 196.644 58.8 196.644 58C196.644 57.1893 196.372 56.512 195.828 55.968C195.284 55.4133 194.612 55.136 193.812 55.136C193.001 55.136 192.324 55.4133 191.78 55.968C191.236 56.512 190.964 57.1893 190.964 58C190.964 58.8 191.236 59.4827 191.78 60.048C192.324 60.592 193.001 60.864 193.812 60.864ZM201.073 59.616L205.505 54H206.625V62H205.249V56.384L200.817 62H199.697V54H201.073V59.616ZM207.848 54H214.696V55.344H211.976V62H210.584V55.344H207.848V54ZM223.283 58.64H216.579C216.718 59.344 217.043 59.8987 217.555 60.304C218.067 60.6987 218.707 60.896 219.475 60.896C220.531 60.896 221.299 60.5067 221.779 59.728L222.963 60.4C222.174 61.6053 221 62.208 219.443 62.208C218.184 62.208 217.15 61.8133 216.339 61.024C215.55 60.2133 215.155 59.2053 215.155 58C215.155 56.784 215.544 55.7813 216.323 54.992C217.102 54.192 218.11 53.792 219.347 53.792C220.52 53.792 221.475 54.208 222.211 55.04C222.958 55.8507 223.331 56.8427 223.331 58.016C223.331 58.2187 223.315 58.4267 223.283 58.64ZM219.347 55.104C218.611 55.104 217.992 55.312 217.491 55.728C217 56.144 216.696 56.7093 216.579 57.424H221.923C221.806 56.688 221.512 56.1173 221.043 55.712C220.574 55.3067 220.008 55.104 219.347 55.104ZM234.259 57.888C235.08 58.2293 235.491 58.848 235.491 59.744C235.491 60.4267 235.267 60.976 234.819 61.392C234.371 61.7973 233.742 62 232.931 62H228.931V54H232.611C233.4 54 234.014 54.1973 234.451 54.592C234.899 54.9867 235.123 55.5147 235.123 56.176C235.123 56.944 234.835 57.5147 234.259 57.888ZM232.547 55.248H230.291V57.344H232.547C233.358 57.344 233.763 56.9867 233.763 56.272C233.763 55.5893 233.358 55.248 232.547 55.248ZM230.291 60.736H232.851C233.256 60.736 233.566 60.64 233.779 60.448C234.003 60.256 234.115 59.984 234.115 59.632C234.115 59.3013 234.003 59.0453 233.779 58.864C233.566 58.672 233.256 58.576 232.851 58.576H230.291V60.736ZM238.37 59.616L242.802 54H243.922V62H242.546V56.384L238.114 62H236.993V54H238.37V59.616ZM252.92 54V60.672H254.024V64.144H252.648V62H246.648V64.144H245.272V60.672H246.248C246.76 59.968 247.016 58.9813 247.016 57.712V54H252.92ZM247.832 60.672H251.544V55.296H248.392V57.712C248.392 58.8853 248.206 59.872 247.832 60.672ZM262.892 58.64H256.188C256.327 59.344 256.652 59.8987 257.164 60.304C257.676 60.6987 258.316 60.896 259.084 60.896C260.14 60.896 260.908 60.5067 261.388 59.728L262.572 60.4C261.783 61.6053 260.61 62.208 259.052 62.208C257.794 62.208 256.759 61.8133 255.948 61.024C255.159 60.2133 254.764 59.2053 254.764 58C254.764 56.784 255.154 55.7813 255.932 54.992C256.711 54.192 257.719 53.792 258.956 53.792C260.13 53.792 261.084 54.208 261.82 55.04C262.567 55.8507 262.94 56.8427 262.94 58.016C262.94 58.2187 262.924 58.4267 262.892 58.64ZM258.956 55.104C258.22 55.104 257.602 55.312 257.1 55.728C256.61 56.144 256.306 56.7093 256.188 57.424H261.532C261.415 56.688 261.122 56.1173 260.652 55.712C260.183 55.3067 259.618 55.104 258.956 55.104ZM271.277 60.992C270.466 61.8027 269.469 62.208 268.285 62.208C267.101 62.208 266.103 61.8027 265.293 60.992C264.482 60.1813 264.077 59.184 264.077 58C264.077 56.816 264.482 55.8187 265.293 55.008C266.103 54.1973 267.101 53.792 268.285 53.792C269.469 53.792 270.466 54.1973 271.277 55.008C272.098 55.8293 272.509 56.8267 272.509 58C272.509 59.1733 272.098 60.1707 271.277 60.992ZM268.285 60.848C269.085 60.848 269.757 60.576 270.301 60.032C270.845 59.488 271.117 58.8107 271.117 58C271.117 57.1893 270.845 56.512 270.301 55.968C269.757 55.424 269.085 55.152 268.285 55.152C267.495 55.152 266.829 55.424 266.285 55.968C265.741 56.512 265.469 57.1893 265.469 58C265.469 58.8107 265.741 59.488 266.285 60.032C266.829 60.576 267.495 60.848 268.285 60.848ZM279.526 59.616L283.958 54H285.078V62H283.702V56.384L279.27 62H278.15V54H279.526V59.616ZM294.477 60.272L296.781 54H298.269L295.005 62.496C294.663 63.4027 294.183 64.0907 293.565 64.56C292.946 65.04 292.242 65.2533 291.453 65.2V63.904C292.423 63.9787 293.143 63.4453 293.613 62.304L293.741 62.016L290.269 54H291.741L294.477 60.272ZM303.579 57.904C304.464 58.2773 304.907 58.912 304.907 59.808C304.907 60.5013 304.635 61.0773 304.091 61.536C303.547 61.984 302.795 62.208 301.835 62.208C300.235 62.208 299.163 61.568 298.619 60.288L299.787 59.6C300.086 60.4747 300.774 60.912 301.851 60.912C302.374 60.912 302.784 60.8 303.083 60.576C303.382 60.352 303.531 60.0533 303.531 59.68C303.531 59.36 303.408 59.0987 303.163 58.896C302.928 58.6933 302.608 58.592 302.203 58.592H301.035V57.328H301.899C302.304 57.328 302.619 57.232 302.843 57.04C303.067 56.8373 303.179 56.5653 303.179 56.224C303.179 55.872 303.046 55.5947 302.779 55.392C302.512 55.1787 302.155 55.072 301.707 55.072C300.811 55.072 300.203 55.4507 299.883 56.208L298.747 55.552C299.312 54.3787 300.299 53.792 301.707 53.792C302.56 53.792 303.243 54.016 303.755 54.464C304.278 54.9013 304.539 55.4507 304.539 56.112C304.539 56.9227 304.219 57.52 303.579 57.904ZM311.951 57.328V54H313.343V62H311.951V58.656H307.807V62H306.415V54H307.807V57.328H311.951ZM322.086 55.376V54H323.478V62H322.086V60.624C321.404 61.68 320.396 62.208 319.062 62.208C317.932 62.208 316.977 61.8027 316.198 60.992C315.409 60.1707 315.014 59.1733 315.014 58C315.014 56.8373 315.409 55.8453 316.198 55.024C316.988 54.2027 317.942 53.792 319.062 53.792C320.396 53.792 321.404 54.32 322.086 55.376ZM319.238 60.864C320.049 60.864 320.726 60.592 321.27 60.048C321.814 59.4827 322.086 58.8 322.086 58C322.086 57.1893 321.814 56.512 321.27 55.968C320.726 55.4133 320.049 55.136 319.238 55.136C318.438 55.136 317.766 55.4133 317.222 55.968C316.678 56.512 316.406 57.1893 316.406 58C316.406 58.8 316.678 59.4827 317.222 60.048C317.766 60.592 318.438 60.864 319.238 60.864ZM331.219 52.8H326.899V51.584H331.219V52.8ZM326.963 59.616L331.395 54H332.515V62H331.139V56.384L326.707 62H325.587V54H326.963V59.616ZM333.738 54H340.586V55.344H337.866V62H336.474V55.344H333.738V54ZM349.174 58.64H342.47C342.608 59.344 342.934 59.8987 343.446 60.304C343.958 60.6987 344.598 60.896 345.366 60.896C346.422 60.896 347.19 60.5067 347.67 59.728L348.854 60.4C348.064 61.6053 346.891 62.208 345.334 62.208C344.075 62.208 343.04 61.8133 342.23 61.024C341.44 60.2133 341.046 59.2053 341.046 58C341.046 56.784 341.435 55.7813 342.214 54.992C342.992 54.192 344 53.792 345.238 53.792C346.411 53.792 347.366 54.208 348.102 55.04C348.848 55.8507 349.222 56.8427 349.222 58.016C349.222 58.2187 349.206 58.4267 349.174 58.64ZM345.238 55.104C344.502 55.104 343.883 55.312 343.382 55.728C342.891 56.144 342.587 56.7093 342.47 57.424H347.814C347.696 56.688 347.403 56.1173 346.934 55.712C346.464 55.3067 345.899 55.104 345.238 55.104ZM139.096 79.824V76H140.488V84H139.096V81.12C138.445 81.3973 137.725 81.536 136.936 81.536C135.901 81.536 135.107 81.2907 134.552 80.8C133.997 80.3093 133.72 79.5947 133.72 78.656V76H135.112V78.576C135.112 79.1627 135.267 79.5893 135.576 79.856C135.896 80.112 136.381 80.24 137.032 80.24C137.768 80.24 138.456 80.1013 139.096 79.824ZM141.707 76H148.555V77.344H145.835V84H144.443V77.344H141.707V76ZM156.214 82.992C155.404 83.8027 154.406 84.208 153.222 84.208C152.038 84.208 151.041 83.8027 150.23 82.992C149.42 82.1813 149.014 81.184 149.014 80C149.014 78.816 149.42 77.8187 150.23 77.008C151.041 76.1973 152.038 75.792 153.222 75.792C154.406 75.792 155.404 76.1973 156.214 77.008C157.036 77.8293 157.446 78.8267 157.446 80C157.446 81.1733 157.036 82.1707 156.214 82.992ZM153.222 82.848C154.022 82.848 154.694 82.576 155.238 82.032C155.782 81.488 156.054 80.8107 156.054 80C156.054 79.1893 155.782 78.512 155.238 77.968C154.694 77.424 154.022 77.152 153.222 77.152C152.433 77.152 151.766 77.424 151.222 77.968C150.678 78.512 150.406 79.1893 150.406 80C150.406 80.8107 150.678 81.488 151.222 82.032C151.766 82.576 152.433 82.848 153.222 82.848ZM162.191 76H169.039V77.344H166.319V84H164.927V77.344H162.191V76ZM176.571 77.376V76H177.963V84H176.571V82.624C175.888 83.68 174.88 84.208 173.547 84.208C172.416 84.208 171.461 83.8027 170.683 82.992C169.893 82.1707 169.499 81.1733 169.499 80C169.499 78.8373 169.893 77.8453 170.683 77.024C171.472 76.2027 172.427 75.792 173.547 75.792C174.88 75.792 175.888 76.32 176.571 77.376ZM173.723 82.864C174.533 82.864 175.211 82.592 175.755 82.048C176.299 81.4827 176.571 80.8 176.571 80C176.571 79.1893 176.299 78.512 175.755 77.968C175.211 77.4133 174.533 77.136 173.723 77.136C172.923 77.136 172.251 77.4133 171.707 77.968C171.163 78.512 170.891 79.1893 170.891 80C170.891 80.8 171.163 81.4827 171.707 82.048C172.251 82.592 172.923 82.864 173.723 82.864ZM182.888 79.872L186.84 84H185.112L181.464 80.208V84H180.072V76H181.464V79.536L184.92 76H186.712L182.888 79.872ZM194.152 82.992C193.341 83.8027 192.344 84.208 191.16 84.208C189.976 84.208 188.978 83.8027 188.168 82.992C187.357 82.1813 186.952 81.184 186.952 80C186.952 78.816 187.357 77.8187 188.168 77.008C188.978 76.1973 189.976 75.792 191.16 75.792C192.344 75.792 193.341 76.1973 194.152 77.008C194.973 77.8293 195.384 78.8267 195.384 80C195.384 81.1733 194.973 82.1707 194.152 82.992ZM191.16 82.848C191.96 82.848 192.632 82.576 193.176 82.032C193.72 81.488 193.992 80.8107 193.992 80C193.992 79.1893 193.72 78.512 193.176 77.968C192.632 77.424 191.96 77.152 191.16 77.152C190.37 77.152 189.704 77.424 189.16 77.968C188.616 78.512 188.344 79.1893 188.344 80C188.344 80.8107 188.616 81.488 189.16 82.032C189.704 82.576 190.37 82.848 191.16 82.848ZM204.705 80.64H198.001C198.139 81.344 198.465 81.8987 198.977 82.304C199.489 82.6987 200.129 82.896 200.897 82.896C201.953 82.896 202.721 82.5067 203.201 81.728L204.385 82.4C203.595 83.6053 202.422 84.208 200.865 84.208C199.606 84.208 198.571 83.8133 197.761 83.024C196.971 82.2133 196.577 81.2053 196.577 80C196.577 78.784 196.966 77.7813 197.745 76.992C198.523 76.192 199.531 75.792 200.769 75.792C201.942 75.792 202.897 76.208 203.633 77.04C204.379 77.8507 204.753 78.8427 204.753 80.016C204.753 80.2187 204.737 80.4267 204.705 80.64ZM200.769 77.104C200.033 77.104 199.414 77.312 198.913 77.728C198.422 78.144 198.118 78.7093 198.001 79.424H203.345C203.227 78.688 202.934 78.1173 202.465 77.712C201.995 77.3067 201.43 77.104 200.769 77.104ZM212.145 76.128H213.649L211.889 79.056L213.649 81.968H212.145L210.385 79.056L212.145 76.128ZM214.865 76.128H216.369L214.609 79.056L216.369 81.968H214.865L213.105 79.056L214.865 76.128ZM224.749 76V82.672H225.852V86.144H224.477V84H218.477V86.144H217.101V82.672H218.077C218.589 81.968 218.845 80.9813 218.845 79.712V76H224.749ZM219.661 82.672H223.373V77.296H220.221V79.712C220.221 80.8853 220.034 81.872 219.661 82.672ZM233.792 82.992C232.982 83.8027 231.984 84.208 230.8 84.208C229.616 84.208 228.619 83.8027 227.808 82.992C226.998 82.1813 226.592 81.184 226.592 80C226.592 78.816 226.998 77.8187 227.808 77.008C228.619 76.1973 229.616 75.792 230.8 75.792C231.984 75.792 232.982 76.1973 233.792 77.008C234.614 77.8293 235.024 78.8267 235.024 80C235.024 81.1733 234.614 82.1707 233.792 82.992ZM230.8 82.848C231.6 82.848 232.272 82.576 232.816 82.032C233.36 81.488 233.632 80.8107 233.632 80C233.632 79.1893 233.36 78.512 232.816 77.968C232.272 77.424 231.6 77.152 230.8 77.152C230.011 77.152 229.344 77.424 228.8 77.968C228.256 78.512 227.984 79.1893 227.984 80C227.984 80.8107 228.256 81.488 228.8 82.032C229.344 82.576 230.011 82.848 230.8 82.848ZM237.12 76H243.056V84H241.664V77.344H238.512V80.608C238.512 81.888 238.256 82.8 237.744 83.344C237.232 83.8773 236.48 84.096 235.488 84V82.688C236.043 82.7627 236.453 82.64 236.72 82.32C236.987 81.9893 237.12 81.408 237.12 80.576V76ZM251.645 79.872L255.005 84H253.373L250.381 80.208V84H249.005V80.208L246.013 84H244.397L247.741 79.872L244.557 76H246.173L249.005 79.536V76H250.381V79.536L253.213 76H254.845L251.645 79.872ZM261.873 79.328V76H263.265V84H261.873V80.656H257.729V84H256.337V76H257.729V79.328H261.873ZM272.136 82.992C271.325 83.8027 270.328 84.208 269.144 84.208C267.96 84.208 266.963 83.8027 266.152 82.992C265.341 82.1813 264.936 81.184 264.936 80C264.936 78.816 265.341 77.8187 266.152 77.008C266.963 76.1973 267.96 75.792 269.144 75.792C270.328 75.792 271.325 76.1973 272.136 77.008C272.957 77.8293 273.368 78.8267 273.368 80C273.368 81.1733 272.957 82.1707 272.136 82.992ZM269.144 82.848C269.944 82.848 270.616 82.576 271.16 82.032C271.704 81.488 271.976 80.8107 271.976 80C271.976 79.1893 271.704 78.512 271.16 77.968C270.616 77.424 269.944 77.152 269.144 77.152C268.355 77.152 267.688 77.424 267.144 77.968C266.6 78.512 266.328 79.1893 266.328 80C266.328 80.8107 266.6 81.488 267.144 82.032C267.688 82.576 268.355 82.848 269.144 82.848ZM278.769 84.208C277.564 84.208 276.561 83.808 275.761 83.008C274.961 82.1973 274.561 81.1947 274.561 80C274.561 78.8053 274.961 77.808 275.761 77.008C276.561 76.1973 277.564 75.792 278.769 75.792C279.558 75.792 280.268 75.984 280.897 76.368C281.526 76.7413 281.996 77.248 282.305 77.888L281.137 78.56C280.934 78.1333 280.62 77.792 280.193 77.536C279.777 77.28 279.302 77.152 278.769 77.152C277.969 77.152 277.297 77.424 276.753 77.968C276.22 78.5227 275.953 79.2 275.953 80C275.953 80.7893 276.22 81.4613 276.753 82.016C277.297 82.56 277.969 82.832 278.769 82.832C279.302 82.832 279.782 82.7093 280.209 82.464C280.636 82.208 280.961 81.8667 281.185 81.44L282.369 82.128C282.017 82.768 281.521 83.2747 280.881 83.648C280.241 84.0213 279.537 84.208 278.769 84.208ZM282.723 76H289.571V77.344H286.851V84H285.459V77.344H282.723V76ZM296.326 79.328V76H297.718V84H296.326V80.656H292.182V84H290.79V76H292.182V79.328H296.326ZM306.461 77.376V76H307.853V84H306.461V82.624C305.779 83.68 304.771 84.208 303.437 84.208C302.307 84.208 301.352 83.8027 300.573 82.992C299.784 82.1707 299.389 81.1733 299.389 80C299.389 78.8373 299.784 77.8453 300.573 77.024C301.363 76.2027 302.317 75.792 303.437 75.792C304.771 75.792 305.779 76.32 306.461 77.376ZM303.613 82.864C304.424 82.864 305.101 82.592 305.645 82.048C306.189 81.4827 306.461 80.8 306.461 80C306.461 79.1893 306.189 78.512 305.645 77.968C305.101 77.4133 304.424 77.136 303.613 77.136C302.813 77.136 302.141 77.4133 301.597 77.968C301.053 78.512 300.781 79.1893 300.781 80C300.781 80.8 301.053 81.4827 301.597 82.048C302.141 82.592 302.813 82.864 303.613 82.864ZM312.538 76H315.946V84H314.57V81.12H313.402L311.162 84H309.466L311.802 81.04C311.194 80.8907 310.704 80.592 310.33 80.144C309.968 79.696 309.786 79.1733 309.786 78.576C309.786 77.84 310.048 77.2267 310.57 76.736C311.093 76.2453 311.749 76 312.538 76ZM312.586 79.872H314.57V77.296H312.586C312.181 77.296 311.84 77.4187 311.562 77.664C311.296 77.8987 311.162 78.208 311.162 78.592C311.162 78.9653 311.296 79.2747 311.562 79.52C311.84 79.7547 312.181 79.872 312.586 79.872ZM322.056 76H328.984V84H327.592V77.328H323.448V84H322.056V76ZM337.727 77.376V76H339.119V84H337.727V82.624C337.044 83.68 336.036 84.208 334.703 84.208C333.572 84.208 332.618 83.8027 331.839 82.992C331.05 82.1707 330.655 81.1733 330.655 80C330.655 78.8373 331.05 77.8453 331.839 77.024C332.628 76.2027 333.583 75.792 334.703 75.792C336.036 75.792 337.044 76.32 337.727 77.376ZM334.879 82.864C335.69 82.864 336.367 82.592 336.911 82.048C337.455 81.4827 337.727 80.8 337.727 80C337.727 79.1893 337.455 78.512 336.911 77.968C336.367 77.4133 335.69 77.136 334.879 77.136C334.079 77.136 333.407 77.4133 332.863 77.968C332.319 78.512 332.047 79.1893 332.047 80C332.047 80.8 332.319 81.4827 332.863 82.048C333.407 82.592 334.079 82.864 334.879 82.864ZM341.228 76H348.156V84H346.764V77.328H342.62V84H341.228V76ZM353.091 79.872L357.043 84H355.315L351.667 80.208V84H350.275V76H351.667V79.536L355.123 76H356.915L353.091 79.872ZM364.227 77.376V76H365.619V84H364.227V82.624C363.544 83.68 362.536 84.208 361.203 84.208C360.072 84.208 359.118 83.8027 358.339 82.992C357.55 82.1707 357.155 81.1733 357.155 80C357.155 78.8373 357.55 77.8453 358.339 77.024C359.128 76.2027 360.083 75.792 361.203 75.792C362.536 75.792 363.544 76.32 364.227 77.376ZM361.379 82.864C362.19 82.864 362.867 82.592 363.411 82.048C363.955 81.4827 364.227 80.8 364.227 80C364.227 79.1893 363.955 78.512 363.411 77.968C362.867 77.4133 362.19 77.136 361.379 77.136C360.579 77.136 359.907 77.4133 359.363 77.968C358.819 78.512 358.547 79.1893 358.547 80C358.547 80.8 358.819 81.4827 359.363 82.048C359.907 82.592 360.579 82.864 361.379 82.864ZM367.76 76.128H369.264L371.024 79.056L369.264 81.968H367.76L369.52 79.056L367.76 76.128ZM370.48 76.128H371.984L373.744 79.056L371.984 81.968H370.48L372.24 79.056L370.48 76.128Z" fill="white"/>
<g clip-path="url(#clip0)">
<path d="M111.929 53.5174C111.329 51.2898 109.573 49.5339 107.346 48.934C103.276 47.8204 86.9995 47.8204 86.9995 47.8204C86.9995 47.8204 70.723 47.8204 66.6538 48.8916C64.4694 49.491 62.6702 51.2902 62.0708 53.5174C61 57.5862 61 66.0246 61 66.0246C61 66.0246 61 74.5054 62.0708 78.5318C62.6706 80.759 64.4265 82.5154 66.6542 83.1152C70.7658 84.2288 86.9999 84.2288 86.9999 84.2288C86.9999 84.2288 103.276 84.2288 107.346 83.1577C109.573 82.5582 111.329 80.8019 111.929 78.5747C113 74.5054 113 66.0675 113 66.0675C113 66.0675 113.043 57.5862 111.929 53.5174Z" fill="white"/>
<path d="M81.8174 73.8204L95.3526 66.0247L81.8174 58.2289V73.8204Z" fill="#CD2121"/>
</g>
<defs>
<filter id="filter0_d" x="0" y="0" width="437" height="150.437" filterUnits="userSpaceOnUse" color-interpolation-filters="sRGB">
<feFlood flood-opacity="0" result="BackgroundImageFix"/>
<feColorMatrix in="SourceAlpha" type="matrix" values="0 0 0 0 0 0 0 0 0 0 0 0 0 0 0 0 0 0 127 0" result="hardAlpha"/>
<feOffset dy="4"/>
<feGaussianBlur stdDeviation="2"/>
<feComposite in2="hardAlpha" operator="out"/>
<feColorMatrix type="matrix" values="0 0 0 0 0 0 0 0 0 0 0 0 0 0 0 0 0 0 0.25 0"/>
<feBlend mode="normal" in2="BackgroundImageFix" result="effect1_dropShadow"/>
<feBlend mode="normal" in="SourceGraphic" in2="effect1_dropShadow" result="shape"/>
</filter>
<clipPath id="clip0">
<rect x="61" y="40" width="52" height="52" fill="white"/>
</clipPath>
</defs>
</svg>
